<?xml version="1.0" encoding="utf-8"?>
<!-- Generator: Adobe Illustrator 22.1.0, SVG Export Plug-In . SVG Version: 6.00 Build 0)  -->
<svg version="1.1" id="baseline-group-24px" xmlns="http://www.w3.org/2000/svg" xmlns:xlink="http://www.w3.org/1999/xlink"
	 x="0px" y="0px" viewBox="0 0 40 40" style="enable-background:new 0 0 40 40;" xml:space="preserve">
<style type="text/css">
	.st0{fill:none;}
	.st1{fill:#325083;}
</style>
<path id="Path_128" class="st0" d="M0,0h40v40H0V0z"/>
<path id="Path_129" class="st1" d="M26.7,18.3c2.8,0,5-2.2,5-5s-2.2-5-5-5s-5,2.2-5,5C21.7,16.1,23.9,18.3,26.7,18.3
	C26.6,18.3,26.7,18.3,26.7,18.3z M13.3,18.3c2.8,0,5-2.2,5-5s-2.2-5-5-5s-5,2.2-5,5C8.3,16.1,10.5,18.3,13.3,18.3
	C13.3,18.3,13.3,18.3,13.3,18.3z M13.3,21.7c-3.9,0-11.7,2-11.7,5.8v4.2H25v-4.2C25,23.6,17.2,21.7,13.3,21.7z M26.7,21.7
	c-0.5,0-1,0-1.6,0.1c2,1.2,3.2,3.4,3.3,5.8v4.2h10v-4.2C38.3,23.6,30.5,21.7,26.7,21.7z"/>
</svg>
