<svg id="baseline-help-24px" xmlns="http://www.w3.org/2000/svg" viewBox="0 0 51.665 53.18">
  <defs>
    <style>
      .cls-1 {
        fill: none;
      }
    </style>
  </defs>
  <path id="Path_108" data-name="Path 108" class="cls-1" d="M0,0H51.665V53.18H0Z"/>
  <path id="Path_109" data-name="Path 109" d="M23.527,2C11.644,2,2,11.927,2,24.159s9.644,22.159,21.527,22.159S45.054,36.39,45.054,24.159,35.41,2,23.527,2ZM25.68,39.67H21.374V35.238H25.68ZM30.136,22.5,28.2,24.535a7.646,7.646,0,0,0-2.519,6.271H21.374V29.7a9.053,9.053,0,0,1,2.519-6.271l2.669-2.792a4.365,4.365,0,1,0-7.341-3.124H14.916a8.737,8.737,0,0,1,8.611-8.863,8.737,8.737,0,0,1,8.611,8.863A7.156,7.156,0,0,1,30.136,22.5Z" transform="translate(2.305 2.432)"/>
</svg>
