<?xml version="1.0" encoding="utf-8"?>
<!-- Generator: Adobe Illustrator 22.1.0, SVG Export Plug-In . SVG Version: 6.00 Build 0)  -->
<svg version="1.1" id="Group_61" xmlns="http://www.w3.org/2000/svg" xmlns:xlink="http://www.w3.org/1999/xlink" x="0px" y="0px"
	 viewBox="0 0 48.2 44.7" style="enable-background:new 0 0 48.2 44.7;" xml:space="preserve">
<style type="text/css">
	.st0{fill:#9DBE20;}
</style>
<g>
	<path id="Path_85" class="st0" d="M26.9,12.4C30.3,8.1,29.6,4,24.1,0c-5.9,4.3-6.1,8.7-2.4,12.9c0.6,0.6,2.4,2.2,2.4,2.2
		c1.8,0.1,3.5,0.5,5.2,1.1c-1-1.5-2.1-2.8-3.5-3.9c-2.4-1.9-5-5.2-1.7-8c2.2,1.9,1.7,4,0.4,5.8c0,0,0.1,0.4,1.7,1.8
		C26.5,12.1,26.7,12.2,26.9,12.4"/>
	<path id="Path_86" class="st0" d="M23.6,15.5c-1.1,1.2-1.9,2.6-2.4,4.1s-0.8,3-0.8,4.5c-1.2-0.4-2.3-1-3.3-1.8
		c0.2-1.8,0.6-3.6,1.3-5.2c0.7-1.4,1.6-2.7,2.8-3.8L23.6,15.5z"/>
	<path id="Path_87" class="st0" d="M13.4,19.8C8.7,16.6,4.3,17.3,0,22.4c4.6,5.5,9.4,5.7,13.9,2.2c0.7-0.5,2.4-2.2,2.4-2.2
		c0.1-1.7,0.5-3.3,1.2-4.8c-1.6,0.9-3,1.9-4.3,3.2c-2,2.2-5.7,4.6-8.7,1.6c2-2,4.3-1.6,6.3-0.4c0,0,0.4-0.1,1.9-1.6
		C13,20.2,13.2,20,13.4,19.8"/>
	<path id="Path_88" class="st0" d="M16.7,22.9c1.3,1,2.8,1.8,4.4,2.3c1.6,0.4,3.2,0.7,4.9,0.8c-0.5,1.1-1.1,2.1-1.9,3
		c-1.9-0.1-3.8-0.6-5.6-1.3c-1.5-0.6-2.9-1.5-4.1-2.6L16.7,22.9z"/>
	<path id="Path_89" class="st0" d="M21.3,32.3c-3.4,4.3-2.7,8.4,2.8,12.4c5.9-4.3,6.2-8.7,2.4-12.9c-0.6-0.6-2.4-2.2-2.4-2.2
		c-1.8-0.1-3.5-0.5-5.2-1.1c1,1.5,2.1,2.8,3.5,3.9c2.4,1.9,5,5.2,1.7,8c-2.2-1.9-1.7-4-0.4-5.8c0,0-0.1-0.4-1.7-1.8
		C21.8,32.7,21.6,32.5,21.3,32.3"/>
	<path id="Path_90" class="st0" d="M24.7,29.2c1.1-1.2,1.9-2.6,2.4-4.1s0.8-3,0.8-4.5c1.2,0.4,2.3,1,3.2,1.8
		c-0.2,1.8-0.6,3.6-1.3,5.2c-0.7,1.4-1.6,2.7-2.8,3.8L24.7,29.2z"/>
	<path id="Path_91" class="st0" d="M34.9,24.9c4.6,3.2,9,2.5,13.4-2.6c-4.6-5.4-9.4-5.7-14-2.2c-0.7,0.5-2.4,2.2-2.4,2.2
		c-0.1,1.7-0.5,3.3-1.2,4.8c1.6-0.9,3-1.9,4.3-3.2c2-2.2,5.7-4.6,8.7-1.6c-2,2-4.3,1.6-6.3,0.4c0,0-0.5,0.1-1.9,1.6
		C35.2,24.5,35.1,24.7,34.9,24.9"/>
	<path id="Path_92" class="st0" d="M31.5,21.8c-1.3-1-2.8-1.8-4.4-2.3s-3.2-0.7-4.9-0.8c0.5-1.1,1.1-2.1,1.9-3
		c1.9,0.1,3.8,0.6,5.6,1.3c1.5,0.6,2.9,1.5,4.1,2.6L31.5,21.8z"/>
	<path id="Path_93" class="st0" d="M5.3,17.6c0.8-0.2,1.7-0.4,2.6-0.4c0.4,0,0.7,0,1.1,0c1.8-4.2,5.3-7.5,9.7-8.9
		c0-0.3-0.1-0.6-0.1-1c0-0.8,0.1-1.7,0.4-2.5C12.5,6.4,7.3,11.2,5.3,17.6"/>
	<path id="Path_94" class="st0" d="M18.9,39.8c-0.3-0.8-0.4-1.6-0.4-2.4c0-0.3,0-0.7,0.1-1c-4.4-1.4-7.9-4.7-9.6-9
		c-0.3,0-0.7,0.1-1,0c-0.9,0-1.8-0.1-2.6-0.4C7.3,33.4,12.5,38.3,18.9,39.8"/>
	<path id="Path_95" class="st0" d="M42.9,27.1c-0.8,0.2-1.7,0.4-2.6,0.4c-0.4,0-0.7,0-1.1,0c-1.7,4.3-5.3,7.5-9.7,8.9
		c0,0.3,0.1,0.6,0.1,1c0,0.8-0.1,1.7-0.4,2.4C35.7,38.3,40.9,33.5,42.9,27.1"/>
	<path id="Path_96" class="st0" d="M29.3,4.9c0.3,0.8,0.4,1.6,0.4,2.4c0,0.3,0,0.7-0.1,1c4.4,1.4,7.9,4.7,9.6,9c0.3,0,0.7-0.1,1,0
		c0.9,0,1.8,0.1,2.6,0.4C40.9,11.3,35.7,6.5,29.3,4.9"/>
</g>
</svg>
