<svg xmlns="http://www.w3.org/2000/svg" viewBox="0 0 201.135 113.496">
  <defs>
    <style>
      .cls-1 {
        fill: #fff;
      }
    </style>
  </defs>
  <g id="Group_8" data-name="Group 8" transform="translate(-88 -23.277)">
    <path id="Path_1" data-name="Path 1" class="cls-1" d="M90.759,31.451C98.84,20.573,97.224,10.194,84.233,0c-13.8,10.877-14.42,22.065-5.594,32.756,1.305,1.554,5.656,5.656,5.656,5.656s4.848-.062,12.182,2.8A44.686,44.686,0,0,0,88.335,31.2C82.8,26.416,76.65,17.9,84.3,10.815c5.159,4.786,4.04,10.193,1.057,14.731,0,0,.311,1.119,4.04,4.537a14.184,14.184,0,0,0,1.367,1.367" transform="translate(60.453 23.277)"/>
    <path id="Path_2" data-name="Path 2" class="cls-1" d="M79.852,59.932a29.478,29.478,0,0,0-5.718,10.38,48.782,48.782,0,0,0-1.989,11.437C69.037,81,64.5,77.211,64.5,77.211a44.684,44.684,0,0,1,3.17-13.239A28.935,28.935,0,0,1,74.258,54.4Z" transform="translate(63.59 2.69)"/>
    <path id="Path_3" data-name="Path 3" class="cls-1" d="M31.451,77.356C20.573,69.338,10.131,70.954,0,83.882c10.877,13.861,22.065,14.482,32.756,5.656,1.554-1.305,5.656-5.656,5.656-5.656S38.35,79.034,41.271,71.7a44.686,44.686,0,0,0-10.007,8.142c-4.786,5.532-13.3,11.685-20.387,4.04,4.786-5.159,10.194-4.04,14.731-1.057,0,0,1.057-.311,4.537-4.04.435-.5.932-.932,1.305-1.43" transform="translate(88 -3.857)"/>
    <path id="Path_4" data-name="Path 4" class="cls-1" d="M59.894,93.4a29.479,29.479,0,0,0,10.38,5.718,48.783,48.783,0,0,0,11.437,1.989c-.746,3.108-4.537,7.645-4.537,7.645a43.665,43.665,0,0,1-13.239-3.232A28.772,28.772,0,0,1,54.3,98.932Z" transform="translate(67.45 -12.07)"/>
    <path id="Path_5" data-name="Path 5" class="cls-1" d="M77.356,126.058c-8.08,10.877-6.464,21.257,6.526,31.451,13.861-10.877,14.482-22.065,5.656-32.756-1.305-1.554-5.656-5.656-5.656-5.656s-4.848.062-12.182-2.8a44.686,44.686,0,0,0,8.142,10.007c5.532,4.786,11.685,13.3,4.04,20.387-5.159-4.786-4.04-10.193-1.057-14.731,0,0-.311-1.057-4.04-4.475a7.749,7.749,0,0,0-1.43-1.43" transform="translate(60.866 -20.736)"/>
    <path id="Path_6" data-name="Path 6" class="cls-1" d="M93.4,105.917a29.479,29.479,0,0,0,5.718-10.38A48.782,48.782,0,0,0,101.107,84.1c3.108.746,7.645,4.537,7.645,4.537a44.683,44.683,0,0,1-3.17,13.239,28.773,28.773,0,0,1-6.588,9.634Z" transform="translate(52.653 -8.55)"/>
    <path id="Path_7" data-name="Path 7" class="cls-1" d="M126.021,90.759c10.877,8.08,21.257,6.464,31.451-6.526-10.877-13.8-22.065-14.42-32.818-5.594C123.1,79.944,119,84.3,119,84.3s.062,4.848-2.8,12.182a44.686,44.686,0,0,0,10.007-8.142c4.786-5.532,13.3-11.685,20.387-4.04-4.786,5.159-10.193,4.04-14.731,1.057,0,0-1.119.311-4.537,4.04a13.248,13.248,0,0,0-1.305,1.367" transform="translate(44.025 -4.27)"/>
    <path id="Path_8" data-name="Path 8" class="cls-1" d="M105.879,79.815A29.479,29.479,0,0,0,95.5,74.1,47.815,47.815,0,0,0,84,72.045c.746-3.108,4.537-7.645,4.537-7.645a43.665,43.665,0,0,1,13.239,3.232,28.772,28.772,0,0,1,9.634,6.588Z" transform="translate(56.211 -1.095)"/>
    <path id="Path_9" data-name="Path 9" class="cls-1" d="M20.1,52.172a19.816,19.816,0,0,1,6.091-.932c.87,0,1.678.062,2.486.124A38.084,38.084,0,0,1,51.426,28.74a15.841,15.841,0,0,1-.124-2.424A18.875,18.875,0,0,1,52.3,20.1,46.031,46.031,0,0,0,20.1,52.172" transform="translate(80.393 15.67)"/>
    <path id="Path_10" data-name="Path 10" class="cls-1" d="M52.172,142.8a19.816,19.816,0,0,1-.932-6.091c0-.87.062-1.678.124-2.486A37.924,37.924,0,0,1,28.74,111.47a15.841,15.841,0,0,1-2.424.124A18.876,18.876,0,0,1,20.1,110.6a45.813,45.813,0,0,0,32.072,32.2" transform="translate(80.393 -18.579)"/>
    <path id="Path_11" data-name="Path 11" class="cls-1" d="M142.8,110.8a19.816,19.816,0,0,1-6.091.932c-.87,0-1.678-.062-2.486-.124a38.023,38.023,0,0,1-22.749,22.687,15.844,15.844,0,0,1,.124,2.424,18.876,18.876,0,0,1-.994,6.216A46.114,46.114,0,0,0,142.8,110.8" transform="translate(46.144 -18.655)"/>
    <path id="Path_12" data-name="Path 12" class="cls-1" d="M110.8,20.1a19.816,19.816,0,0,1,.932,6.091c0,.87-.062,1.678-.124,2.486a38.023,38.023,0,0,1,22.687,22.749,15.84,15.84,0,0,1,2.424-.124,18.876,18.876,0,0,1,6.216.994A46.114,46.114,0,0,0,110.8,20.1" transform="translate(46.068 15.67)"/>
    <path id="Path_13" data-name="Path 13" class="cls-1" d="M203.4,114.191V101.2h.684l19.144,20.449.249.249c.062-1.43.124-2.859.124-4.227V105.24l-.124-3.108-.062-.311a15.24,15.24,0,0,0,1.678.124,5.442,5.442,0,0,0,.995-.124,4.7,4.7,0,0,0-.062.932l-.186,3.791-.373,9.2-.124,8.7.124,4.413H224.9c-.808-.932-1.554-1.865-2.362-2.735L216.2,119.1,205.324,107.54l-.062,3.667c-.062,1.927,0,3.854,0,5.78V120.1l.124,4.6.186,3.729a6.454,6.454,0,0,0-2.673,0c.124-1.74.249-3.419.311-5.159Z" transform="translate(11.214 -15.021)"/>
    <path id="Path_14" data-name="Path 14" class="cls-1" d="M254.681,115.153l.124,8.453.186,4.227.062.87a16.053,16.053,0,0,0-1.8-.186c-.684,0-1.367.124-2.051.186a3.819,3.819,0,0,0,.062-.87l.186-3.046.124-9.075V106.2l-.187-4.1c.684.062,1.305.186,1.989.186.559,0,1.181-.062,1.8-.124a6.024,6.024,0,0,0-.062,1.057l-.186,3.543-.186,6.775,5.035.124,11.126-.124V105.27l-.187-3.17c.684.062,1.305.186,1.989.186a17.553,17.553,0,0,0,1.8-.124c-.062.373-.062.684-.124,1.057l-.373,12.68.124,8.764.186,4.1a16.525,16.525,0,0,0-1.74-.186c-.684,0-1.367.124-2.051.186a3.831,3.831,0,0,0,.062-.87l.187-3.978.124-8.64H254.681Z" transform="translate(-7.065 -15.362)"/>
    <path id="Path_15" data-name="Path 15" class="cls-1" d="M298.219,123.241c1.492,2.486,3.294,3.978,6.278,3.978a5.414,5.414,0,0,0,5.408-5.594c0-2.611-1.74-3.916-3.916-4.91a44.106,44.106,0,0,1-5.47-2.611,6.458,6.458,0,0,1-2.735-5.345c0-5.035,3.978-7.459,8.64-7.459a8.514,8.514,0,0,1,5.532,1.865,27.1,27.1,0,0,0-1.057,3.17h-.373a5.075,5.075,0,0,0-4.848-3.481,4.713,4.713,0,0,0-4.91,4.662,4.45,4.45,0,0,0,1.678,3.605,5.432,5.432,0,0,0,1.492.932,10.909,10.909,0,0,0,1.492.684c.559.249,1.181.435,1.74.746.559.249,1.243.5,1.8.808a8.437,8.437,0,0,1,2.424,1.678,6.3,6.3,0,0,1,1.616,4.1c0,5.532-4.289,8.764-9.572,8.764-1.927,0-5.035-.746-6.34-2.175a21.654,21.654,0,0,0,.746-3.481h.373Z" transform="translate(-24.436 -15.059)"/>
    <path id="Path_16" data-name="Path 16" class="cls-1" d="M207.759,163.923a3.823,3.823,0,0,0-.87-.062c-.311,0-.622.062-.87.062-.995-3.729-2.113-7.459-3.294-11.126l-.124-.5a10.077,10.077,0,0,0,1.367.062c.435,0,.932-.062,1.367-.062.684,2.859,1.492,5.656,2.238,8.515.995-2.859,2.051-5.656,2.921-8.515a4.106,4.106,0,0,0,.87.062c.249,0,.559-.062.808-.062.746,2.859,1.865,5.656,2.735,8.515.932-2.8,1.8-5.656,2.486-8.515a3.028,3.028,0,0,0,.746.062c.249,0,.5-.062.746-.062v.124c-1.367,3.791-2.735,7.645-3.916,11.5a3.823,3.823,0,0,0-.87-.062c-.311,0-.622.062-.87.062-.746-2.8-1.74-5.532-2.735-8.267-.932,2.735-1.927,5.345-2.859,8.08Z" transform="translate(11.327 -34.36)"/>
    <path id="Path_17" data-name="Path 17" class="cls-1" d="M241.77,159.31h3.108c-.5-1.305-.994-2.673-1.492-3.978-.559,1.243-1.057,2.486-1.554,3.792Zm-3.17,4.413,1.243-2.921c1.243-2.859,2.486-5.718,3.543-8.7a2.332,2.332,0,0,0,.622.062c.249,0,.435-.062.622-.062l.124.311c1.43,3.729,2.921,7.459,4.475,11.126l.062.186v.124a11.49,11.49,0,0,0-1.43-.062c-.5,0-.932.062-1.43.062-.373-1.181-.746-2.3-1.181-3.481-.622,0-1.243-.062-1.865-.062-.684,0-1.367,0-2.051.062l-.062.249a28.068,28.068,0,0,0-1.057,3.232,3.282,3.282,0,0,0-.808-.062c-.249,0-.559.062-.808.062v-.124Z" transform="translate(-2.297 -34.284)"/>
    <path id="Path_18" data-name="Path 18" class="cls-1" d="M267.3,152.3a10.077,10.077,0,0,0,1.367.062c.435,0,.932-.062,1.367-.062-.062.994-.124,2.051-.124,3.046v5.221c0,.684.062,1.43.062,2.113l.932-.062c.995,0,1.989-.124,2.984-.186a4.508,4.508,0,0,0,0,1.492l-2.859-.124c-.808,0-1.554.062-2.3.062a11.005,11.005,0,0,0-1.43.062c.124-1.865.124-3.667.124-5.532V156.34c0-1.243-.062-2.486-.124-3.729Z" transform="translate(-13.158 -34.36)"/>
    <path id="Path_19" data-name="Path 19" class="cls-1" d="M289.7,152.3c.932,0,1.8.124,2.735.124,1.305,0,2.548-.062,3.854-.062a8.337,8.337,0,0,0-.062,1.243.228.228,0,0,0,.062.186,27.107,27.107,0,0,0-3.854-.186c0,.622-.062,1.181-.062,1.74v1.865l3.854-.124a3.283,3.283,0,0,0-.062.808c0,.249.062.435.062.622-.995-.062-1.989-.124-3.046-.124h-.808v4.289a27.612,27.612,0,0,0,3.916-.249,8.338,8.338,0,0,0-.062,1.243.229.229,0,0,0,.062.186c-.994,0-2.051-.124-3.108-.124-.684,0-1.367.062-1.989.062a11.976,11.976,0,0,0-1.492.062,5.021,5.021,0,0,0,.062-.994c.062-1.057.062-2.113.062-3.17v-4.6c0-.87-.062-1.8-.124-2.673Z" transform="translate(-21.635 -34.36)"/>
    <path id="Path_20" data-name="Path 20" class="cls-1" d="M317.143,154.524a2,2,0,0,0-1.927-1.43,1.82,1.82,0,0,0-1.367.435,1.591,1.591,0,0,0-.5,1.181c0,1.8,4.04,2.175,4.91,4.164a4.273,4.273,0,0,1,.311,1.492,3.691,3.691,0,0,1-.435,1.616,3.4,3.4,0,0,1-1.8,1.678,4.9,4.9,0,0,1-2.3.435,5.942,5.942,0,0,1-2.735-.684c.186-.746.373-1.43.5-2.175h.311a2.238,2.238,0,0,0,2.362,1.8,1.734,1.734,0,0,0,1.367-3.046,11.611,11.611,0,0,0-1.927-1.057c-.5-.249-.932-.559-1.367-.808a3.365,3.365,0,0,1,.124-5.221,3.562,3.562,0,0,1,2.611-.808,4.624,4.624,0,0,1,2.548.684c.062.062.124.062.124.124l-.559,1.678h-.249Z" transform="translate(-29.81 -34.284)"/>
    <path id="Path_21" data-name="Path 21" class="cls-1" d="M213.631,82.421l-.373,1.43a7.787,7.787,0,0,1-3.356.746,9.152,9.152,0,0,1-2.238-.249,9.946,9.946,0,0,1-1.865-.808,7.516,7.516,0,0,1-1.243-1.181A5.4,5.4,0,0,1,203.5,79a6.115,6.115,0,0,1,1.927-4.848,7.378,7.378,0,0,1,4.786-1.554,8.4,8.4,0,0,1,3.481.808c-.124.559-.249,1.181-.373,1.74h-.187a3.452,3.452,0,0,0-2.8-1.492c-2.8,0-3.978,2.611-3.978,5.1a5.829,5.829,0,0,0,.995,3.481,3.773,3.773,0,0,0,3.046,1.43,4.947,4.947,0,0,0,3.046-1.243Z" transform="translate(10.987 -4.198)"/>
    <path id="Path_22" data-name="Path 22" class="cls-1" d="M229.478,72.924a12.068,12.068,0,0,0,1.492-.124,15.907,15.907,0,0,1,.684,1.492c.249.559.5,1.057.746,1.616l.746,1.492a1.629,1.629,0,0,0,.311.559c0,.062.249-.311.249-.311a3.471,3.471,0,0,1,.311-.5c.373-.684.684-1.367.995-1.989a13.316,13.316,0,0,0,.622-1.367c.124-.311.249-.559.373-.87a.229.229,0,0,1,.187.062,3.387,3.387,0,0,0,1.367-.062c-1.181,2.238-2.486,4.289-3.543,6.464,0,.622-.062,1.305-.062,1.927,0,1.057.124,2.113.186,3.232a11.493,11.493,0,0,0-1.43-.062c-.5,0-.995.062-1.43.062.124-1.305.186-2.611.186-3.854v-.932c-1.305-2.175-2.424-4.475-3.667-6.775a7.979,7.979,0,0,1,1.678-.062" transform="translate(1.79 -4.274)"/>
    <path id="Path_23" data-name="Path 23" class="cls-1" d="M253.24,72.9c.249,0,.435.062.684.062s.5-.062.684-.062c1.243,2.735,2.611,5.345,3.916,8.018l.995-1.927c1.057-1.989,2.051-4.04,2.983-6.091a.228.228,0,0,1,.186.062,2.76,2.76,0,0,0,1.243-.062c.311,2.673.621,5.283.932,7.956.124.995.249,1.989.435,2.983a2.672,2.672,0,0,1,.124.746,10.07,10.07,0,0,0-1.367-.062c-.435,0-.932.062-1.367.062-.124-2.611-.435-5.221-.684-7.832-1.305,2.611-2.548,5.221-3.792,7.832a1.054,1.054,0,0,0-.622,0l-1.305-2.735c-.808-1.678-1.616-3.294-2.424-4.91l-.373,2.983c-.062.622-.124,1.305-.186,1.927-.062.559-.062,1.119-.124,1.678,0,.373-.062.684-.062,1.057a3.283,3.283,0,0,0-.808-.062c-.249,0-.5.062-.808.062a1.837,1.837,0,0,1,.124-.622c.186-.87.311-1.74.435-2.611.186-1.119.311-2.238.5-3.294Z" transform="translate(-7.179 -4.311)"/>
    <path id="Path_24" data-name="Path 24" class="cls-1" d="M285.948,75.882V78.43a2.158,2.158,0,0,0,2.673-2.424,4.1,4.1,0,0,0-.062-.87c-.311-1.43-1.367-1.243-2.548-1.305v2.051Zm.684,4.227a3.96,3.96,0,0,0-.5-.87l-.124-.124s-.062,0-.062.124c0,.994.062,2.051.062,3.046v.435a17.549,17.549,0,0,0,.124,1.8,10.071,10.071,0,0,0-1.367-.062c-.435,0-.932.062-1.367.062V84.21c0-.373.062-.746.062-1.119.062-1.119.062-2.238.062-3.356V76.627c0-1.243-.062-2.486-.124-3.729l1.181.062c.808,0,1.616-.062,2.424-.062a5.752,5.752,0,0,1,2.735.373,2.61,2.61,0,0,1,1.492,2.486,2.983,2.983,0,0,1-2.673,3.046c.932,1.616,1.989,3.17,2.984,4.786l.622.994a12.991,12.991,0,0,0-1.554-.062c-.5,0-.994.062-1.554.062L287.067,81.1Z" transform="translate(-19.251 -4.31)"/>
    <path id="Path_25" data-name="Path 25" class="cls-1" d="M316.98,75.348c0,.559-.062,1.119-.062,1.678,0,.622-.062,1.243-.062,1.865-.062,1.927,0,3.729-1.8,4.91a5.456,5.456,0,0,1-3.232.932c-2.051,0-4.289-.622-4.91-2.859a4.8,4.8,0,0,1-.124-.932,7.525,7.525,0,0,1-.062-1.181c0-.684-.062-1.367-.062-2.113v-4.04c0-.249-.062-.5-.062-.746a11,11,0,0,0,1.43.062A10.161,10.161,0,0,0,309.4,72.8c0,.249-.062.559-.062.808-.062,1.367-.124,2.673-.124,3.978a18.751,18.751,0,0,0,.124,3.232,2.852,2.852,0,0,0,.932,1.927,2.779,2.779,0,0,0,1.927.746,2.886,2.886,0,0,0,3.046-2.051,13.213,13.213,0,0,0,.311-3.543c0-1.678,0-3.419-.124-5.1a4.1,4.1,0,0,0,.87.062c.311,0,.559-.062.87-.062-.124.87-.124,1.678-.186,2.548" transform="translate(-28.031 -4.274)"/>
    <path id="Path_26" data-name="Path 26" class="cls-1" d="M263.881,34.915,264,43.368l.186,4.227.062.87a16.055,16.055,0,0,0-1.8-.186c-.684,0-1.367.124-2.051.186a3.824,3.824,0,0,0,.062-.87l.186-3.046.187-9.075V25.9l-.187-4.1c.684.062,1.305.186,1.989.186.559,0,1.181-.062,1.8-.124a6.032,6.032,0,0,0-.062,1.057l-.187,3.543-.186,6.775Z" transform="translate(-10.547 15.027)"/>
    <path id="Path_27" data-name="Path 27" class="cls-1" d="M230.537,45.895c.5,1.554-8.018,2.175-11.126,2.175-10.193,0-18.212-5.221-18.212-13.985,0-8.267,8.018-13.985,18.212-13.985a30.4,30.4,0,0,1,10.629,1.927L228.424,24.7a23.145,23.145,0,0,0-8.95-1.74c-7.956,0-13.612,4.972-13.612,11.188s5.656,11.188,13.612,11.188a23.583,23.583,0,0,0,6.9-1.119l.559-.435V35.7l-.186-4.1c.684.062,1.927.186,2.611.186.559,0,1.181-.062,1.8-.124a6.038,6.038,0,0,0-.062,1.057l-.187,3.543Z" transform="translate(11.857 15.67)"/>
    <path id="Path_28" data-name="Path 28" class="cls-1" d="M304.137,45.895c.5,1.554-8.018,2.175-11.126,2.175-10.193,0-18.211-5.221-18.211-13.985,0-8.267,8.018-13.985,18.211-13.985a30.4,30.4,0,0,1,10.629,1.927L302.024,24.7a23.144,23.144,0,0,0-8.95-1.74c-7.956,0-13.612,4.972-13.612,11.188s5.656,11.188,13.612,11.188a23.583,23.583,0,0,0,6.9-1.119l.435-.559V35.7l-.186-4.1c.684.062,1.927.186,2.611.186.559,0,1.181-.062,1.8-.124a6.032,6.032,0,0,0-.062,1.057l-.186,3.543Z" transform="translate(-15.997 15.67)"/>
  </g>
</svg>
