<?xml version="1.0" encoding="utf-8"?>
<!-- Generator: Adobe Illustrator 22.1.0, SVG Export Plug-In . SVG Version: 6.00 Build 0)  -->
<svg version="1.1" id="baseline-mic-24px" xmlns="http://www.w3.org/2000/svg" xmlns:xlink="http://www.w3.org/1999/xlink" x="0px"
	 y="0px" viewBox="0 0 33.2 33.2" style="enable-background:new 0 0 33.2 33.2;" xml:space="preserve">
<style type="text/css">
	.st0{fill:#1D1D1B;}
	.st1{fill:none;}
</style>
<path id="Path_114" class="st0" d="M16.6,19.3c2.3,0,4.1-1.8,4.1-4.1c0,0,0,0,0,0l0-8.3c0-2.3-1.9-4.1-4.2-4.1c-2.2,0-4,1.8-4.1,4.1
	v8.3C12.4,17.5,14.3,19.3,16.6,19.3C16.6,19.3,16.6,19.3,16.6,19.3z M23.9,15.2c-0.1,4-3.3,7.1-7.3,7c0,0,0,0,0,0
	c-4,0.1-7.2-3.1-7.3-7c0,0,0,0,0,0H6.9c0.1,4.7,3.6,8.6,8.3,9.3V29H18v-4.5c4.7-0.7,8.2-4.6,8.3-9.3H23.9z"/>
<path id="Path_115" class="st1" d="M0,0h33.2v33.2H0V0z"/>
</svg>
