<svg id="baseline-mic-24px" xmlns="http://www.w3.org/2000/svg" viewBox="0 0 33.156 33.156">
  <defs>
    <style>
      .cls-1 {
        fill: #325083;
      }

      .cls-2 {
        fill: none;
      }
    </style>
  </defs>
  <path id="Path_114" data-name="Path 114" class="cls-1" d="M14.671,18.578A4.127,4.127,0,0,0,18.8,14.434l.014-8.289a4.145,4.145,0,0,0-8.289,0v8.289A4.139,4.139,0,0,0,14.671,18.578Zm7.322-4.145a7.168,7.168,0,0,1-7.322,7.046,7.168,7.168,0,0,1-7.322-7.046H5a9.648,9.648,0,0,0,8.289,9.284v4.531h2.763V23.717a9.626,9.626,0,0,0,8.289-9.284Z" transform="translate(1.908 0.763)"/>
  <path id="Path_115" data-name="Path 115" class="cls-2" d="M0,0H33.156V33.156H0Z"/>
</svg>
