<svg id="Group_145" data-name="Group 145" xmlns="http://www.w3.org/2000/svg" viewBox="0 0 249.609 82.6">
  <defs>
    <style>
      .cls-1 {
        fill: #325083;
      }
    </style>
  </defs>
  <g id="Group_142" data-name="Group 142" transform="translate(167.733 9.319)">
    <g id="Group_140" data-name="Group 140" transform="translate(0.181)">
      <path id="Path_192" data-name="Path 192" class="cls-1" d="M379.388,23.89a4.783,4.783,0,0,0-2.759-.679,3.74,3.74,0,0,0-3.89,3.935,3.771,3.771,0,0,0,3.8,3.935,5.184,5.184,0,0,0,1.628-.181V27.826H376.04V26.65h3.574V31.9a9.251,9.251,0,0,1-3.076.452A4.963,4.963,0,0,1,371.2,27.1a5.047,5.047,0,0,1,5.338-5.2,8.116,8.116,0,0,1,2.986.5Z" transform="translate(-371.2 -21.312)"/>
      <path id="Path_193" data-name="Path 193" class="cls-1" d="M402.318,35.673h-1.583l-1.9-6.2h-.045l-1.855,6.2h-1.583L393,28.3h1.493l1.674,6.107h.045l1.9-6.107h1.628l1.855,6.107h.045l1.809-6.107h1.312Z" transform="translate(-383.139 -24.817)"/>
      <path id="Path_194" data-name="Path 194" class="cls-1" d="M421.459,28.679A4.686,4.686,0,0,1,423.9,28c2.126,0,2.986,1.04,2.986,3.076v3.076c0,.859.045,1.221.045,1.448h-1.267v-.95h-.045a2.738,2.738,0,0,1-2.307,1.131c-1.583,0-2.714-.679-2.714-2.307,0-1.855,2.036-2.443,3.438-2.443.543,0,.9,0,1.448.045,0-1.267-.452-1.945-1.809-1.945a3.229,3.229,0,0,0-2.126.769Zm4.071,3.347c-.271,0-.588-.045-.859-.045-.724,0-2.578.136-2.578,1.4A1.331,1.331,0,0,0,423.45,34.6a1.853,1.853,0,0,0,2.036-1.945v-.633Z" transform="translate(-398.254 -24.653)"/>
      <path id="Path_195" data-name="Path 195" class="cls-1" d="M438.136,34.062a3.582,3.582,0,0,0,1.674.543c.633,0,1.4-.271,1.4-1.04,0-1.357-3.212-1.221-3.212-3.3,0-1.538,1.131-2.262,2.624-2.262a6.17,6.17,0,0,1,1.674.271l-.136,1.176a4.259,4.259,0,0,0-1.448-.362c-.679,0-1.312.271-1.312.9,0,1.493,3.212,1.086,3.212,3.438a2.327,2.327,0,0,1-2.578,2.307A4.557,4.557,0,0,1,438,35.328Z" transform="translate(-407.783 -24.653)"/>
      <path id="Path_196" data-name="Path 196" class="cls-1" d="M451.759,28.679A4.686,4.686,0,0,1,454.2,28c2.126,0,2.986,1.04,2.986,3.076v3.076c0,.859.045,1.221.045,1.448h-1.312v-.95h0a2.738,2.738,0,0,1-2.307,1.131c-1.583,0-2.714-.679-2.714-2.307,0-1.855,2.036-2.443,3.438-2.443.543,0,.9,0,1.448.045,0-1.267-.452-1.945-1.809-1.945a3.229,3.229,0,0,0-2.126.769Zm4.026,3.347c-.271,0-.588-.045-.859-.045-.724,0-2.578.136-2.578,1.4A1.332,1.332,0,0,0,453.7,34.6a1.853,1.853,0,0,0,2.036-1.945v-.633Z" transform="translate(-414.847 -24.653)"/>
      <path id="Path_197" data-name="Path 197" class="cls-1" d="M469.745,28.081h1.312v1.176h.045a2.631,2.631,0,0,1,2.4-1.357c1.9,0,2.759,1.176,2.759,3.166v4.388H474.9v-3.8c0-1.719-.362-2.578-1.583-2.624-1.538,0-2.262,1.267-2.262,3.031V35.5H469.7V28.081Z" transform="translate(-425.143 -24.598)"/>
      <path id="Path_198" data-name="Path 198" class="cls-1" d="M489.059,28.679A4.686,4.686,0,0,1,491.5,28c2.126,0,2.986,1.04,2.986,3.076v3.076c0,.859.045,1.221.045,1.448h-1.267v-.95h-.045a2.738,2.738,0,0,1-2.307,1.131c-1.583,0-2.714-.679-2.714-2.307,0-1.855,2.036-2.443,3.438-2.443.543,0,.9,0,1.448.045,0-1.267-.452-1.945-1.809-1.945a3.229,3.229,0,0,0-2.126.769Zm4.026,3.347c-.271,0-.588-.045-.859-.045-.724,0-2.578.136-2.578,1.4A1.332,1.332,0,0,0,491,34.6a1.853,1.853,0,0,0,2.036-1.945v-.633Z" transform="translate(-435.274 -24.653)"/>
      <path id="Path_199" data-name="Path 199" class="cls-1" d="M512.252,35.238a5.9,5.9,0,0,1-2.352.5c-2.624,0-3.8-1.583-3.8-3.981A3.44,3.44,0,0,1,509.538,28c2.443,0,3.257,1.809,3.257,4.162h-5.247A2.4,2.4,0,0,0,509.99,34.6a4.283,4.283,0,0,0,2.262-.724Zm-.9-4.116a1.855,1.855,0,0,0-1.855-2.036,2.043,2.043,0,0,0-1.99,2.036Z" transform="translate(-445.077 -24.653)"/>
      <path id="Path_200" data-name="Path 200" class="cls-1" d="M527.521,26.857h-1.945v4.026a1.173,1.173,0,0,0,1.131,1.312,1.533,1.533,0,0,0,.9-.271V33.1a4.285,4.285,0,0,1-1.176.181,1.972,1.972,0,0,1-2.262-2.126v-4.3H522.5V25.771h1.674V24.052l1.357-.452v2.126h1.945v1.131Z" transform="translate(-454.059 -22.243)"/>
      <path id="Path_201" data-name="Path 201" class="cls-1" d="M537.345,20.6H538.7v4.524h.045A2.738,2.738,0,0,1,541.1,23.9c1.9,0,2.759,1.176,2.759,3.166v4.388H542.5v-3.8c0-1.719-.362-2.578-1.583-2.624-1.538,0-2.262,1.267-2.262,3.031V31.5H537.3V20.6Z" transform="translate(-462.164 -20.6)"/>
      <path id="Path_202" data-name="Path 202" class="cls-1" d="M379.388,58.89a4.783,4.783,0,0,0-2.759-.679,3.937,3.937,0,0,0-.09,7.871,5.183,5.183,0,0,0,1.628-.181V62.826H376.04V61.65h3.574V66.9a9.251,9.251,0,0,1-3.076.452A4.963,4.963,0,0,1,371.2,62.1a5.047,5.047,0,0,1,5.338-5.2,8.116,8.116,0,0,1,2.986.5Z" transform="translate(-371.2 -40.48)"/>
      <path id="Path_203" data-name="Path 203" class="cls-1" d="M402.318,70.673h-1.583l-1.9-6.2h-.045l-1.855,6.2h-1.583L393,63.3h1.493l1.674,6.107h.045l1.9-6.107h1.628l1.855,6.107h.045l1.809-6.107h1.312Z" transform="translate(-383.139 -43.984)"/>
      <path id="Path_204" data-name="Path 204" class="cls-1" d="M420,72.819a2.61,2.61,0,0,0,.633.136c1.221,0,1.628-1.674,1.628-1.809a3.154,3.154,0,0,0-.271-.769L419.5,63.5h1.493l1.99,6.107h.045l2.036-6.107h1.357l-2.714,7.554c-.5,1.4-1.04,3.076-2.85,3.076a3.961,3.961,0,0,1-.9-.09Z" transform="translate(-397.651 -44.094)"/>
      <path id="Path_205" data-name="Path 205" class="cls-1" d="M437.745,55.6H439.1v4.478h.045A2.636,2.636,0,0,1,441.59,58.9c2.126,0,3.167,1.764,3.167,3.755,0,2.036-.95,3.981-3.167,3.981a3.022,3.022,0,0,1-2.533-1.221h-.045v1.04H437.7V55.6Zm3.528,4.433c-1.493,0-2.171,1.4-2.171,2.759,0,1.221.633,2.759,2.171,2.759,1.448,0,2.081-1.628,2.036-2.8C443.354,61.435,442.766,60.033,441.274,60.033Z" transform="translate(-407.618 -39.768)"/>
      <path id="Path_206" data-name="Path 206" class="cls-1" d="M460.053,62.9a3.634,3.634,0,0,1,3.755,3.845,3.756,3.756,0,1,1-7.509,0A3.609,3.609,0,0,1,460.053,62.9Zm0,6.65c1.583,0,2.307-1.448,2.307-2.759a2.344,2.344,0,1,0-4.614,0A2.427,2.427,0,0,0,460.053,69.55Z" transform="translate(-417.803 -43.765)"/>
      <path id="Path_207" data-name="Path 207" class="cls-1" d="M481.5,65.416h0a3.091,3.091,0,0,1-2.533,1.221c-2.217,0-3.167-1.99-3.167-3.981s1.04-3.755,3.167-3.755a2.636,2.636,0,0,1,2.443,1.176h.045V55.6h1.357V66.457H481.5Zm-2.217.136c1.538,0,2.171-1.538,2.171-2.759,0-1.357-.724-2.759-2.171-2.759-1.493,0-2.036,1.4-2.036,2.714C477.2,63.923,477.836,65.552,479.283,65.552Z" transform="translate(-428.484 -39.768)"/>
      <path id="Path_208" data-name="Path 208" class="cls-1" d="M501.452,70.238a5.9,5.9,0,0,1-2.352.5c-2.624,0-3.8-1.583-3.8-3.981A3.44,3.44,0,0,1,498.738,63c2.443,0,3.257,1.809,3.257,4.162h-5.247A2.4,2.4,0,0,0,499.19,69.6a4.283,4.283,0,0,0,2.262-.724Zm-.859-4.116a1.855,1.855,0,0,0-1.855-2.036,2.043,2.043,0,0,0-1.99,2.036Z" transform="translate(-439.163 -43.82)"/>
      <path id="Path_209" data-name="Path 209" class="cls-1" d="M520.057,70.138c0,2.262-1.176,3.528-3.8,3.528a7.645,7.645,0,0,1-2.669-.5l.136-1.267a5.443,5.443,0,0,0,2.669.679,2.23,2.23,0,0,0,2.307-2.533v-.724h-.045a3.089,3.089,0,0,1-2.488,1.131c-2.126,0-3.166-1.719-3.166-3.619s1.086-3.935,3.3-3.935a2.473,2.473,0,0,1,2.443,1.267h.045V63.081h1.267ZM518.7,66.881c0-1.538-.724-2.85-2.171-2.85-1.357,0-2.036,1.493-2.036,2.759,0,1.4.769,2.624,2.036,2.624A2.351,2.351,0,0,0,518.7,66.881Z" transform="translate(-448.856 -43.765)"/>
    </g>
    <g id="Group_141" data-name="Group 141" transform="translate(0 39.445)">
      <path id="Path_210" data-name="Path 210" class="cls-1" d="M372.3,109.9h1.448v10.088H372.3Z" transform="translate(-371.621 -108.95)"/>
      <path id="Path_211" data-name="Path 211" class="cls-1" d="M380.845,115.681h1.312v1.176h.045a2.631,2.631,0,0,1,2.4-1.357c1.9,0,2.759,1.176,2.759,3.166v4.388H386v-3.8c0-1.719-.362-2.578-1.583-2.624-1.538,0-2.262,1.267-2.262,3.031V123.1H380.8v-7.419Z" transform="translate(-376.276 -112.017)"/>
      <path id="Path_212" data-name="Path 212" class="cls-1" d="M400.319,112.55H398.6v-1.086h1.719v-.679c0-1.809.452-2.986,2.488-2.986a5.087,5.087,0,0,1,.9.09l-.045,1.086a2.671,2.671,0,0,0-.633-.09c-1.176,0-1.312.769-1.312,1.764v.814h1.945v1.086h-1.945v6.288h-1.357V112.55Z" transform="translate(-386.024 -107.8)"/>
      <path id="Path_213" data-name="Path 213" class="cls-1" d="M415.555,115.5a3.634,3.634,0,0,1,3.755,3.845,3.756,3.756,0,1,1-7.509,0A3.634,3.634,0,0,1,415.555,115.5Zm0,6.6c1.583,0,2.307-1.448,2.307-2.759a2.344,2.344,0,1,0-4.614,0C413.248,120.657,413.971,122.1,415.555,122.1Z" transform="translate(-393.253 -112.017)"/>
      <path id="Path_214" data-name="Path 214" class="cls-1" d="M432.5,115.681h1.267v1.131h.045a2.227,2.227,0,0,1,1.945-1.312,5.087,5.087,0,0,1,.9.09v1.221a2.3,2.3,0,0,0-.769-.136c-1.221,0-1.99,1.176-1.99,3.031v3.347h-1.357v-7.373Z" transform="translate(-404.59 -112.017)"/>
      <path id="Path_215" data-name="Path 215" class="cls-1" d="M444.9,115.681h1.267v1.086h.045a2.535,2.535,0,0,1,2.352-1.267,2.148,2.148,0,0,1,2.081,1.448,2.686,2.686,0,0,1,2.307-1.448c1.9,0,2.578,1.221,2.578,2.8v4.75h-1.357v-4.388c0-.9-.226-2.036-1.312-2.036-1.4,0-1.945,1.357-1.945,2.714v3.709h-1.357v-4.388c0-.9-.226-2.036-1.312-2.036-1.4,0-1.945,1.357-1.945,2.714v3.709h-1.357v-7.373Z" transform="translate(-411.38 -112.017)"/>
      <path id="Path_216" data-name="Path 216" class="cls-1" d="M473.059,116.179a4.686,4.686,0,0,1,2.443-.679c2.126,0,2.986,1.04,2.986,3.076v3.076c0,.859.045,1.221.045,1.448h-1.267v-.95h-.045a2.738,2.738,0,0,1-2.307,1.131c-1.583,0-2.714-.679-2.714-2.307,0-1.855,2.036-2.443,3.438-2.443.543,0,.9,0,1.448.045,0-1.267-.452-1.945-1.809-1.945a3.229,3.229,0,0,0-2.126.769Zm4.026,3.347c-.271,0-.588-.045-.859-.045-.724,0-2.578.136-2.578,1.4A1.332,1.332,0,0,0,475,122.1a1.853,1.853,0,0,0,2.036-1.945v-.633Z" transform="translate(-426.331 -112.017)"/>
      <path id="Path_217" data-name="Path 217" class="cls-1" d="M493.721,114.357h-1.945v4.026a1.173,1.173,0,0,0,1.131,1.312,1.533,1.533,0,0,0,.9-.271V120.6a4.285,4.285,0,0,1-1.176.181,1.972,1.972,0,0,1-2.262-2.126v-4.3H488.7v-1.086h1.674v-1.719l1.357-.452v2.126h1.945v1.131Z" transform="translate(-435.367 -109.607)"/>
      <path id="Path_218" data-name="Path 218" class="cls-1" d="M505.338,110.338H503.8V108.8h1.538Zm-1.448,1.674h1.357v7.373h-1.357Z" transform="translate(-443.637 -108.348)"/>
      <path id="Path_219" data-name="Path 219" class="cls-1" d="M516.438,116.957a3.855,3.855,0,0,0-1.493-.317,2.787,2.787,0,0,0,.09,5.519,2.806,2.806,0,0,0,1.448-.407l.09,1.221a3.978,3.978,0,0,1-1.719.317,3.737,3.737,0,0,1-3.755-3.845,3.61,3.61,0,0,1,3.755-3.845,5.556,5.556,0,0,1,1.628.271Z" transform="translate(-447.635 -112.072)"/>
      <path id="Path_220" data-name="Path 220" class="cls-1" d="M525.336,121.662a3.581,3.581,0,0,0,1.674.543c.633,0,1.4-.271,1.4-1.04,0-1.357-3.212-1.221-3.212-3.3,0-1.538,1.131-2.262,2.624-2.262a6.17,6.17,0,0,1,1.674.271l-.136,1.176a4.259,4.259,0,0,0-1.448-.362c-.679,0-1.312.271-1.312.9,0,1.493,3.212,1.086,3.212,3.438a2.327,2.327,0,0,1-2.578,2.307,4.558,4.558,0,0,1-2.036-.407Z" transform="translate(-455.356 -112.072)"/>
      <path id="Path_221" data-name="Path 221" class="cls-1" d="M376.047,146.228a4.63,4.63,0,0,0-1.9-.407c-.814,0-1.764.271-1.764,1.357,0,1.945,4.343,1.493,4.343,4.84,0,2.171-1.674,3.031-3.709,3.031a6.54,6.54,0,0,1-2.081-.407l.136-1.357a6.693,6.693,0,0,0,2.081.5c.814,0,1.99-.452,1.99-1.628,0-2.262-4.343-1.628-4.343-4.795,0-1.809,1.4-2.759,3.257-2.759a7.523,7.523,0,0,1,2.171.362Z" transform="translate(-370.8 -127.953)"/>
      <path id="Path_222" data-name="Path 222" class="cls-1" d="M393.052,157.738a5.9,5.9,0,0,1-2.352.5c-2.624,0-3.8-1.583-3.8-3.981a3.44,3.44,0,0,1,3.438-3.755c2.443,0,3.257,1.809,3.257,4.162h-5.247a2.4,2.4,0,0,0,2.443,2.443,4.283,4.283,0,0,0,2.262-.724Zm-.859-4.071a1.855,1.855,0,0,0-1.855-2.036,2.043,2.043,0,0,0-1.99,2.036Z" transform="translate(-379.617 -131.184)"/>
      <path id="Path_223" data-name="Path 223" class="cls-1" d="M405.8,150.681h1.267v1.131h.045a2.227,2.227,0,0,1,1.945-1.312,5.087,5.087,0,0,1,.9.09v1.221a2.3,2.3,0,0,0-.769-.136c-1.221,0-1.99,1.176-1.99,3.031v3.347h-1.357v-7.373Z" transform="translate(-389.968 -131.184)"/>
      <path id="Path_224" data-name="Path 224" class="cls-1" d="M420.3,158.273h-1.628L416,150.9h1.493l1.99,6.016h.045l2.036-6.016h1.357Z" transform="translate(-395.554 -131.404)"/>
      <path id="Path_225" data-name="Path 225" class="cls-1" d="M435.938,145.338H434.4V143.8h1.538Zm-1.448,1.674h1.357v7.373H434.49Z" transform="translate(-405.63 -127.515)"/>
      <path id="Path_226" data-name="Path 226" class="cls-1" d="M447.038,151.957a3.855,3.855,0,0,0-1.493-.317,2.787,2.787,0,0,0,.09,5.519,2.806,2.806,0,0,0,1.448-.407l.09,1.221a3.978,3.978,0,0,1-1.719.317,3.737,3.737,0,0,1-3.755-3.845,3.61,3.61,0,0,1,3.755-3.845,5.556,5.556,0,0,1,1.628.271Z" transform="translate(-409.628 -131.239)"/>
      <path id="Path_227" data-name="Path 227" class="cls-1" d="M462.452,157.738a5.9,5.9,0,0,1-2.352.5c-2.624,0-3.8-1.583-3.8-3.981a3.44,3.44,0,0,1,3.438-3.755c2.443,0,3.257,1.809,3.257,4.162h-5.247a2.4,2.4,0,0,0,2.443,2.443,4.283,4.283,0,0,0,2.262-.724Zm-.9-4.071a1.855,1.855,0,0,0-1.855-2.036,2.043,2.043,0,0,0-1.99,2.036Z" transform="translate(-417.624 -131.184)"/>
    </g>
  </g>
  <g id="Group_143" data-name="Group 143" transform="translate(157.555 9.092)">
    <rect id="Rectangle_104" data-name="Rectangle 104" class="cls-1" width="1.357" height="68.441"/>
  </g>
  <g id="Group_144" data-name="Group 144">
    <path id="Path_228" data-name="Path 228" class="cls-1" d="M85.868,22.889c5.881-7.916,4.7-15.471-4.75-22.889C71.076,7.916,70.623,16.059,77.047,23.839c.95,1.131,4.116,4.116,4.116,4.116a26.106,26.106,0,0,1,8.866,2.036A32.521,32.521,0,0,0,84.1,22.708c-4.026-3.483-8.5-9.68-2.94-14.837,3.755,3.483,2.94,7.419.769,10.721,0,0,.226.814,2.94,3.3a10.323,10.323,0,0,0,1,1" transform="translate(-39.863)"/>
    <path id="Path_229" data-name="Path 229" class="cls-1" d="M75.673,58.426a21.454,21.454,0,0,0-4.162,7.554A35.5,35.5,0,0,0,70.064,74.3C67.8,73.761,64.5,71,64.5,71a32.52,32.52,0,0,1,2.307-9.635A21.059,21.059,0,0,1,71.6,54.4Z" transform="translate(-35.323 -29.792)"/>
    <path id="Path_230" data-name="Path 230" class="cls-1" d="M22.889,75.816C14.973,69.981,7.373,71.157,0,80.566c7.916,10.088,16.059,10.54,23.839,4.116,1.131-.95,4.116-4.116,4.116-4.116A25.644,25.644,0,0,1,30.036,71.7a32.521,32.521,0,0,0-7.283,5.926c-3.483,4.026-9.68,8.5-14.837,2.94,3.483-3.755,7.419-2.94,10.721-.769,0,0,.769-.226,3.3-2.94.317-.362.679-.679.95-1.04" transform="translate(0 -39.266)"/>
    <path id="Path_231" data-name="Path 231" class="cls-1" d="M58.371,93.4a21.454,21.454,0,0,0,7.554,4.162,35.5,35.5,0,0,0,8.323,1.448c-.543,2.262-3.3,5.564-3.3,5.564a31.778,31.778,0,0,1-9.635-2.352A20.94,20.94,0,0,1,54.3,97.426Z" transform="translate(-29.737 -51.15)"/>
    <path id="Path_232" data-name="Path 232" class="cls-1" d="M75.816,123.4c-5.881,7.916-4.7,15.471,4.75,22.889,10.088-7.916,10.54-16.059,4.116-23.839-.95-1.131-4.116-4.116-4.116-4.116A26.106,26.106,0,0,1,71.7,116.3a32.521,32.521,0,0,0,5.926,7.283c4.026,3.483,8.5,9.68,2.94,14.837-3.755-3.483-2.94-7.419-.769-10.721,0,0-.226-.769-2.94-3.257a5.64,5.64,0,0,0-1.04-1.04" transform="translate(-39.266 -63.691)"/>
    <path id="Path_233" data-name="Path 233" class="cls-1" d="M93.4,99.978a21.454,21.454,0,0,0,4.162-7.554A35.5,35.5,0,0,0,99.009,84.1c2.262.543,5.564,3.3,5.564,3.3a32.52,32.52,0,0,1-2.307,9.635,20.94,20.94,0,0,1-4.795,7.011Z" transform="translate(-51.15 -46.057)"/>
    <path id="Path_234" data-name="Path 234" class="cls-1" d="M123.347,85.868c7.916,5.881,15.471,4.7,22.889-4.75-7.916-10.042-16.059-10.495-23.884-4.071-1.131.95-4.116,4.116-4.116,4.116a26.106,26.106,0,0,1-2.036,8.866,32.521,32.521,0,0,0,7.283-5.926c3.483-4.026,9.68-8.5,14.837-2.94-3.483,3.755-7.419,2.94-10.721.769,0,0-.814.226-3.3,2.94a9.644,9.644,0,0,0-.95,1" transform="translate(-63.636 -39.863)"/>
    <path id="Path_235" data-name="Path 235" class="cls-1" d="M99.923,75.618a21.454,21.454,0,0,0-7.554-4.162A34.8,34.8,0,0,0,84,69.964c.543-2.262,3.3-5.564,3.3-5.564a31.778,31.778,0,0,1,9.635,2.352,20.94,20.94,0,0,1,7.012,4.795Z" transform="translate(-46.002 -35.268)"/>
    <path id="Path_236" data-name="Path 236" class="cls-1" d="M20.1,43.442a14.421,14.421,0,0,1,4.433-.679c.633,0,1.221.045,1.809.09A27.717,27.717,0,0,1,42.9,26.388a11.53,11.53,0,0,1-.09-1.764,13.737,13.737,0,0,1,.724-4.524A33.5,33.5,0,0,0,20.1,43.442" transform="translate(-11.008 -11.008)"/>
    <path id="Path_237" data-name="Path 237" class="cls-1" d="M43.442,134.032a14.421,14.421,0,0,1-.679-4.433c0-.633.045-1.221.09-1.809a27.6,27.6,0,0,1-16.466-16.556,11.53,11.53,0,0,1-1.764.09A13.737,13.737,0,0,1,20.1,110.6a33.342,33.342,0,0,0,23.342,23.432" transform="translate(-11.008 -60.57)"/>
    <path id="Path_238" data-name="Path 238" class="cls-1" d="M134.032,110.8a14.421,14.421,0,0,1-4.433.679c-.633,0-1.221-.045-1.809-.09A27.672,27.672,0,0,1,111.233,127.9a11.53,11.53,0,0,1,.09,1.764,13.737,13.737,0,0,1-.724,4.524A33.561,33.561,0,0,0,134.032,110.8" transform="translate(-60.57 -60.679)"/>
    <path id="Path_239" data-name="Path 239" class="cls-1" d="M110.8,20.1a14.421,14.421,0,0,1,.679,4.433c0,.633-.045,1.221-.09,1.809A27.672,27.672,0,0,1,127.9,42.9a11.53,11.53,0,0,1,1.764-.09,13.737,13.737,0,0,1,4.524.724A33.561,33.561,0,0,0,110.8,20.1" transform="translate(-60.679 -11.008)"/>
    <path id="Path_240" data-name="Path 240" class="cls-1" d="M203.262,110.654V101.2h.5l13.933,14.882.181.181c.045-1.04.09-2.081.09-3.076V104.14l-.09-2.262-.045-.226a11.091,11.091,0,0,0,1.221.09,3.959,3.959,0,0,0,.724-.09,3.423,3.423,0,0,0-.045.679l-.136,2.759-.271,6.695-.09,6.333.09,3.212h-.407c-.588-.679-1.131-1.357-1.719-1.99l-4.614-5.112-7.916-8.414-.045,2.669c-.045,1.4,0,2.8,0,4.207v2.262l.09,3.347.136,2.714a4.7,4.7,0,0,0-1.945,0c.09-1.267.181-2.488.226-3.755Z" transform="translate(-111.117 -55.422)"/>
    <path id="Path_241" data-name="Path 241" class="cls-1" d="M253.733,111.6l.09,6.152.136,3.076.045.633a11.683,11.683,0,0,0-1.312-.136c-.5,0-1,.09-1.493.136a2.781,2.781,0,0,0,.045-.633l.136-2.217.09-6.6v-6.921l-.136-2.986c.5.045.95.136,1.448.136.407,0,.859-.045,1.312-.09a4.389,4.389,0,0,0-.045.769l-.136,2.578-.136,4.931,3.664.09,8.1-.09v-6.016L265.4,102.1c.5.045.95.136,1.448.136a12.783,12.783,0,0,0,1.312-.09c-.045.271-.045.5-.09.769l-.271,9.228.09,6.378.136,2.986a12.035,12.035,0,0,0-1.267-.136c-.5,0-1,.09-1.493.136a2.782,2.782,0,0,0,.045-.633l.136-2.9.09-6.288H253.733Z" transform="translate(-137.568 -55.915)"/>
    <path id="Path_242" data-name="Path 242" class="cls-1" d="M297.914,117.268c1.086,1.809,2.4,2.9,4.569,2.9a3.94,3.94,0,0,0,3.935-4.071c0-1.9-1.267-2.85-2.85-3.574a32.1,32.1,0,0,1-3.981-1.9,4.7,4.7,0,0,1-1.99-3.89c0-3.664,2.9-5.428,6.288-5.428a6.2,6.2,0,0,1,4.026,1.357,19.707,19.707,0,0,0-.769,2.307h-.271a3.694,3.694,0,0,0-3.528-2.533,3.43,3.43,0,0,0-3.574,3.393,3.238,3.238,0,0,0,1.221,2.624,3.953,3.953,0,0,0,1.086.679,7.938,7.938,0,0,0,1.086.5c.407.181.859.317,1.267.543.407.181.9.362,1.312.588a6.141,6.141,0,0,1,1.764,1.221,4.586,4.586,0,0,1,1.176,2.986c0,4.026-3.121,6.378-6.966,6.378-1.4,0-3.664-.543-4.614-1.583a15.762,15.762,0,0,0,.543-2.533h.271Z" transform="translate(-162.705 -55.476)"/>
    <path id="Path_243" data-name="Path 243" class="cls-1" d="M206.355,160.759a2.782,2.782,0,0,0-.633-.045c-.226,0-.452.045-.633.045-.724-2.714-1.538-5.428-2.4-8.1l-.09-.362a7.325,7.325,0,0,0,1,.045c.317,0,.679-.045,1-.045.5,2.081,1.086,4.116,1.628,6.2.724-2.081,1.493-4.116,2.126-6.2a2.985,2.985,0,0,0,.633.045c.181,0,.407-.045.588-.045.543,2.081,1.357,4.116,1.99,6.2.679-2.036,1.312-4.116,1.809-6.2a2.2,2.2,0,0,0,.543.045c.181,0,.362-.045.543-.045v.09c-1,2.759-1.99,5.564-2.85,8.369a2.782,2.782,0,0,0-.633-.045c-.226,0-.452.045-.633.045-.543-2.036-1.267-4.026-1.99-6.016-.679,1.99-1.4,3.89-2.081,5.881Z" transform="translate(-110.953 -83.406)"/>
    <path id="Path_244" data-name="Path 244" class="cls-1" d="M240.907,157.347h2.262c-.362-.95-.724-1.945-1.086-2.9-.407.9-.769,1.809-1.131,2.759Zm-2.307,3.212.9-2.126c.9-2.081,1.809-4.162,2.578-6.333a1.7,1.7,0,0,0,.452.045c.181,0,.317-.045.452-.045l.09.226c1.04,2.714,2.126,5.428,3.257,8.1l.045.136v.09a8.363,8.363,0,0,0-1.04-.045c-.362,0-.679.045-1.04.045-.271-.859-.543-1.674-.859-2.533-.452,0-.9-.045-1.357-.045-.5,0-1,0-1.493.045l-.045.181a20.423,20.423,0,0,0-.769,2.352,2.389,2.389,0,0,0-.588-.045c-.181,0-.407.045-.588.045v-.09Z" transform="translate(-130.668 -83.297)"/>
    <path id="Path_245" data-name="Path 245" class="cls-1" d="M267.3,152.3a7.325,7.325,0,0,0,1,.045c.317,0,.679-.045,1-.045-.045.724-.09,1.493-.09,2.217v3.8c0,.5.045,1.04.045,1.538l.679-.045c.724,0,1.448-.09,2.171-.136a3.28,3.28,0,0,0,0,1.086l-2.081-.09c-.588,0-1.131.045-1.674.045a8.006,8.006,0,0,0-1.04.045c.09-1.357.09-2.669.09-4.026V155.24c0-.9-.045-1.809-.09-2.714Z" transform="translate(-146.386 -83.406)"/>
    <path id="Path_246" data-name="Path 246" class="cls-1" d="M289.7,152.3c.679,0,1.312.09,1.99.09.95,0,1.855-.045,2.8-.045a6.06,6.06,0,0,0-.045.9.166.166,0,0,0,.045.136,19.729,19.729,0,0,0-2.8-.136c0,.452-.045.859-.045,1.267v1.357l2.8-.09a2.39,2.39,0,0,0-.045.588c0,.181.045.317.045.452-.724-.045-1.448-.09-2.217-.09h-.588v3.121a20.1,20.1,0,0,0,2.85-.181,6.059,6.059,0,0,0-.045.9.166.166,0,0,0,.045.136c-.724,0-1.493-.09-2.262-.09-.5,0-1,.045-1.448.045a8.718,8.718,0,0,0-1.086.045,3.657,3.657,0,0,0,.045-.724c.045-.769.045-1.538.045-2.307v-3.347c0-.633-.045-1.312-.09-1.945Z" transform="translate(-158.653 -83.406)"/>
    <path id="Path_247" data-name="Path 247" class="cls-1" d="M315.552,153.864a1.452,1.452,0,0,0-1.4-1.04,1.324,1.324,0,0,0-1,.317,1.158,1.158,0,0,0-.362.859c0,1.312,2.94,1.583,3.574,3.031a3.109,3.109,0,0,1,.226,1.086,2.686,2.686,0,0,1-.317,1.176,2.477,2.477,0,0,1-1.312,1.221,3.567,3.567,0,0,1-1.674.317,4.324,4.324,0,0,1-1.99-.5c.136-.543.271-1.04.362-1.583h.226a1.629,1.629,0,0,0,1.719,1.312,1.262,1.262,0,0,0,1-2.217,8.456,8.456,0,0,0-1.4-.769c-.362-.181-.679-.407-1-.588a2.449,2.449,0,0,1,.09-3.8,2.592,2.592,0,0,1,1.9-.588,3.365,3.365,0,0,1,1.855.5c.045.045.09.045.09.09l-.407,1.221h-.181Z" transform="translate(-170.482 -83.297)"/>
    <path id="Path_248" data-name="Path 248" class="cls-1" d="M210.873,79.747l-.271,1.04a5.667,5.667,0,0,1-2.443.543,6.66,6.66,0,0,1-1.628-.181,7.238,7.238,0,0,1-1.357-.588,5.473,5.473,0,0,1-.9-.859,3.928,3.928,0,0,1-.769-2.443,4.45,4.45,0,0,1,1.4-3.528,5.37,5.37,0,0,1,3.483-1.131,6.114,6.114,0,0,1,2.533.588c-.09.407-.181.859-.271,1.267h-.136a2.513,2.513,0,0,0-2.036-1.086c-2.036,0-2.9,1.9-2.9,3.709a4.242,4.242,0,0,0,.724,2.533,2.746,2.746,0,0,0,2.217,1.04,3.6,3.6,0,0,0,2.217-.9Z" transform="translate(-111.446 -39.759)"/>
    <path id="Path_249" data-name="Path 249" class="cls-1" d="M229.021,72.89a8.784,8.784,0,0,0,1.086-.09,11.57,11.57,0,0,1,.5,1.086c.181.407.362.769.543,1.176l.543,1.086a1.186,1.186,0,0,0,.226.407c0,.045.181-.226.181-.226a2.525,2.525,0,0,1,.226-.362c.271-.5.5-1,.724-1.448a9.681,9.681,0,0,0,.452-1c.09-.226.181-.407.271-.633a.166.166,0,0,1,.136.045,2.466,2.466,0,0,0,1-.045c-.859,1.628-1.809,3.121-2.578,4.7,0,.452-.045.95-.045,1.4,0,.769.09,1.538.136,2.352a8.361,8.361,0,0,0-1.04-.045c-.362,0-.724.045-1.04.045.09-.95.136-1.9.136-2.8v-.679c-.95-1.583-1.764-3.257-2.669-4.931a5.805,5.805,0,0,1,1.221-.045" transform="translate(-124.754 -39.869)"/>
    <path id="Path_250" data-name="Path 250" class="cls-1" d="M252.767,72.9c.181,0,.317.045.5.045s.362-.045.5-.045c.9,1.99,1.9,3.89,2.85,5.835l.724-1.4c.769-1.448,1.493-2.94,2.171-4.433a.166.166,0,0,1,.136.045,2.009,2.009,0,0,0,.9-.045c.226,1.945.452,3.845.679,5.79.09.724.181,1.448.317,2.171a1.944,1.944,0,0,1,.09.543,7.33,7.33,0,0,0-1-.045c-.317,0-.679.045-1,.045-.09-1.9-.317-3.8-.5-5.7-.95,1.9-1.855,3.8-2.759,5.7a.767.767,0,0,0-.452,0l-.95-1.99c-.588-1.221-1.176-2.4-1.764-3.574l-.271,2.171c-.045.452-.09.95-.136,1.4-.045.407-.045.814-.09,1.221,0,.271-.045.5-.045.769a2.39,2.39,0,0,0-.588-.045c-.181,0-.362.045-.588.045a1.338,1.338,0,0,1,.09-.452c.136-.633.226-1.267.317-1.9.136-.814.226-1.628.362-2.4Z" transform="translate(-137.733 -39.923)"/>
    <path id="Path_251" data-name="Path 251" class="cls-1" d="M285.255,75.069v1.855a1.571,1.571,0,0,0,1.945-1.764,2.987,2.987,0,0,0-.045-.633c-.226-1.04-1-.9-1.855-.95v1.493Zm.5,3.076a2.887,2.887,0,0,0-.362-.633l-.091-.09s-.045,0-.045.09c0,.724.045,1.493.045,2.217v.317a12.774,12.774,0,0,0,.091,1.312,7.331,7.331,0,0,0-1-.045c-.317,0-.679.045-1,.045V81.13c0-.271.045-.543.045-.814.045-.814.045-1.628.045-2.443V75.611c0-.9-.045-1.809-.09-2.714l.859.045c.588,0,1.176-.045,1.764-.045a4.186,4.186,0,0,1,1.99.271,1.9,1.9,0,0,1,1.086,1.809,2.171,2.171,0,0,1-1.945,2.217c.679,1.176,1.448,2.307,2.171,3.483l.452.724a9.456,9.456,0,0,0-1.131-.045c-.362,0-.724.045-1.131.045l-1.448-2.533Z" transform="translate(-155.203 -39.921)"/>
    <path id="Path_252" data-name="Path 252" class="cls-1" d="M314.154,74.655c0,.407-.045.814-.045,1.221,0,.452-.045.9-.045,1.357-.045,1.4,0,2.714-1.312,3.574a3.971,3.971,0,0,1-2.352.679c-1.493,0-3.121-.452-3.574-2.081a3.492,3.492,0,0,1-.09-.679,5.475,5.475,0,0,1-.045-.859c0-.5-.045-1-.045-1.538v-2.94c0-.181-.045-.362-.045-.543a8.008,8.008,0,0,0,1.04.045,7.4,7.4,0,0,0,1-.09c0,.181-.045.407-.045.588-.045,1-.09,1.945-.09,2.9a13.646,13.646,0,0,0,.09,2.352,2.075,2.075,0,0,0,.679,1.4,2.023,2.023,0,0,0,1.4.543,2.1,2.1,0,0,0,2.217-1.493,9.616,9.616,0,0,0,.226-2.578c0-1.221,0-2.488-.09-3.709a2.986,2.986,0,0,0,.633.045c.226,0,.407-.045.633-.045-.09.633-.09,1.221-.136,1.855" transform="translate(-167.908 -39.869)"/>
    <path id="Path_253" data-name="Path 253" class="cls-1" d="M262.933,31.345l.09,6.152.136,3.076.045.633a11.681,11.681,0,0,0-1.312-.136c-.5,0-1,.09-1.493.136a2.782,2.782,0,0,0,.045-.633l.136-2.217.136-6.6V24.786l-.136-2.986c.5.045.95.136,1.448.136.407,0,.859-.045,1.312-.09a4.39,4.39,0,0,0-.045.769l-.136,2.578-.136,4.931Z" transform="translate(-142.607 -11.939)"/>
    <path id="Path_254" data-name="Path 254" class="cls-1" d="M222.551,38.873c.362,1.131-5.835,1.583-8.1,1.583-7.419,0-13.254-3.8-13.254-10.178,0-6.016,5.835-10.178,13.254-10.178a22.121,22.121,0,0,1,7.735,1.4l-1.176,1.945a16.844,16.844,0,0,0-6.514-1.267c-5.79,0-9.907,3.619-9.907,8.142s4.116,8.142,9.907,8.142a17.163,17.163,0,0,0,5.021-.814l.407-.317V31.454l-.136-2.986c.5.045,1.4.136,1.9.136.407,0,.859-.045,1.312-.09a4.387,4.387,0,0,0-.045.769l-.136,2.578Z" transform="translate(-110.186 -11.008)"/>
    <path id="Path_255" data-name="Path 255" class="cls-1" d="M296.151,38.873c.362,1.131-5.835,1.583-8.1,1.583-7.419,0-13.254-3.8-13.254-10.178,0-6.016,5.835-10.178,13.254-10.178a22.121,22.121,0,0,1,7.735,1.4l-1.176,1.945a16.844,16.844,0,0,0-6.514-1.267c-5.79,0-9.907,3.619-9.907,8.142s4.116,8.142,9.907,8.142a17.163,17.163,0,0,0,5.021-.814l.317-.407v-5.79l-.136-2.986c.5.045,1.4.136,1.9.136.407,0,.859-.045,1.312-.09a4.39,4.39,0,0,0-.045.769l-.136,2.578Z" transform="translate(-150.493 -11.008)"/>
  </g>
</svg>
