<?xml version="1.0" encoding="utf-8"?>
<!-- Generator: Adobe Illustrator 22.1.0, SVG Export Plug-In . SVG Version: 6.00 Build 0)  -->
<svg version="1.1" id="Layer_1" xmlns="http://www.w3.org/2000/svg" xmlns:xlink="http://www.w3.org/1999/xlink" x="0px" y="0px"
	 viewBox="0 0 24 24" style="enable-background:new 0 0 24 24;" xml:space="preserve">
<style type="text/css">
	.st0{fill:#FFFFFF;}
</style>
<g>
	<path class="st0" d="M19,7.4L20.5,6C20,5.5,19.5,5,19,4.6L17.6,6c-1.5-1.2-3.5-2-5.6-2c-5,0-9,4-9,9s4,9,9,9s9-4,9-9
		C21,10.9,20.3,8.9,19,7.4z M12.8,20c-0.3,0-0.5,0-0.8,0s-0.5,0-0.8,0C4.2,19.5,5,13,5,13c0-3.9,3.1-7,7-7s7,3.1,7,7
		C19,13,19.8,19.5,12.8,20z"/>
	<rect x="9" y="1" class="st0" width="6" height="2"/>
	<path class="st0" d="M19,13H5c0,0-0.8,6.5,6.2,7c0.3,0,0.5,0,0.8,0s0.5,0,0.8,0C19.8,19.5,19,13,19,13z"/>
</g>
</svg>
