<?xml version="1.0" encoding="utf-8"?>
<!-- Generator: Adobe Illustrator 22.1.0, SVG Export Plug-In . SVG Version: 6.00 Build 0)  -->
<svg version="1.1" id="Layer_1" xmlns="http://www.w3.org/2000/svg" xmlns:xlink="http://www.w3.org/1999/xlink" x="0px" y="0px"
	 viewBox="0 0 36.4 29.5" style="enable-background:new 0 0 36.4 29.5;" xml:space="preserve">
<style type="text/css">
	.st0{fill:#325083;}
</style>
<path id="Path_161" class="st0" d="M0,24.8L0,24.8L0,24.8L0,24.8c0.1,2.6,3.8,4.6,8.5,4.6c4.7,0,8.5-2.1,8.5-4.7v-0.1l0,0l-0.5-6.2
	h3.5l-0.5,5.9c0,0.2-0.1,0.3-0.1,0.5V25l0,0c0.2,2.5,3.9,4.5,8.5,4.5s8.5-2.1,8.5-4.7v-0.1l0,0L35,8.5V8.5c-0.1-0.9-0.6-1.8-1.5-2.2
	V5.1l0,0V2.7C33.4,1.2,30.9,0,27.9,0s-5.5,1.2-5.6,2.7v2.2l0,0v1.3c-0.6,0.4-1.1,1-1.4,1.7l0,0v0.6L20.5,13h-4.5l-0.4-4.5V8.5
	c-0.1-0.9-0.6-1.8-1.5-2.2V2.7C14.1,1.2,11.6,0,8.6,0S3.2,1.2,3,2.7v2.2l0,0v1.3c-0.6,0.4-1.1,1-1.4,1.7l0,0v0.6L0.3,24.3
	C0,24.5,0,24.6,0,24.8z"/>
</svg>
