<?xml version="1.0" encoding="utf-8"?>
<!-- Generator: Adobe Illustrator 22.1.0, SVG Export Plug-In . SVG Version: 6.00 Build 0)  -->
<svg version="1.1" id="Layer_1" xmlns="http://www.w3.org/2000/svg" xmlns:xlink="http://www.w3.org/1999/xlink" x="0px" y="0px"
	 viewBox="0 0 24 24" style="enable-background:new 0 0 24 24;" xml:space="preserve">
<style type="text/css">
	.st0{fill:#325083;}
</style>
<path class="st0" d="M18.2,23.3c-3.2,0-5.8-2.6-5.8-5.8V15h-1v2.5c0,3.2-2.6,5.8-5.8,5.8S0,20.7,0,17.5c0-0.7,0.1-1.3,0.3-1.9l0-0.1
	c0,0,0-0.1,0.1-0.2l0-0.1l2.9-7.7c0.3-0.9,0.9-1.6,1.7-2.1l1.1-2.9c0.4-1.1,1.4-1.8,2.5-1.8c0,0,0,0,0,0c1.5,0,2.7,1.2,2.7,2.7v4.2
	h1V3.4c0-1.1,0.7-2.2,1.8-2.6C15,0.6,15.7,0.7,16.4,1c0.7,0.3,1.1,0.9,1.4,1.5l1.1,2.9c0.8,0.5,1.4,1.3,1.7,2.2l2.9,7.5
	c0.1,0.3,0.2,0.6,0.3,0.9l0,0.2c0.1,0.5,0.1,1,0.1,1.5C24,20.7,21.4,23.3,18.2,23.3z M10.2,13.7h3.6v3.8c0,2.4,2,4.4,4.4,4.4
	s4.4-2,4.4-4.4c0-0.4,0-0.8-0.1-1.2l0-0.1c-0.1-0.2-0.2-0.5-0.3-0.7L19.4,8c-0.2-0.7-0.7-1.3-1.3-1.6l-0.2-0.1L16.5,3
	c-0.1-0.4-0.4-0.7-0.7-0.8C15.5,2,15.1,2,14.8,2.1c-0.6,0.2-0.9,0.7-0.9,1.3v5.5h-3.6V3.4c0-0.4-0.1-0.7-0.4-1C9.5,2.2,9.2,2,8.8,2
	c0,0,0,0,0,0C8.2,2,7.7,2.4,7.5,2.9L6.2,6.3L6,6.4C5.4,6.8,4.9,7.3,4.7,8l-3,7.9c0,0,0,0.1-0.1,0.2c-0.2,0.5-0.2,1-0.2,1.5
	c0,2.4,2,4.4,4.4,4.4c2.4,0,4.4-2,4.4-4.4V13.7z"/>
</svg>
