<?xml version="1.0" encoding="utf-8"?>
<!-- Generator: Adobe Illustrator 22.1.0, SVG Export Plug-In . SVG Version: 6.00 Build 0)  -->
<svg version="1.1" id="Group_118" xmlns="http://www.w3.org/2000/svg" xmlns:xlink="http://www.w3.org/1999/xlink" x="0px" y="0px"
	 viewBox="0 0 24 24" style="enable-background:new 0 0 24 24;" xml:space="preserve">
<style type="text/css">
	.st0{fill:#FFFFFF;}
</style>
<g id="Group_117" transform="translate(0)">
	<path id="Path_181" class="st0" d="M23.9,16.4L23.9,16.4c-0.1-0.3-0.2-0.6-0.3-0.9l-3.1-8l0,0c-0.3-0.9-0.9-1.6-1.7-2l-1.3-3.3l0,0
		c-0.4-1.1-1.6-1.7-2.8-1.3c-0.9,0.3-1.5,1.1-1.5,2.1v5.1h-2.5V2.9c0-1.2-1-2.2-2.2-2.2c-0.9,0-1.7,0.6-2.1,1.5l0,0L5.3,5.5
		c-0.8,0.4-1.4,1.2-1.7,2l0,0l-3.1,8.2l0,0.1c0,0.1,0,0.2-0.1,0.3C0.1,16.7,0,17.3,0,17.9c0,3,2.4,5.4,5.4,5.4s5.4-2.4,5.4-5.4v-3.4
		h2.4v3.4c0,3,2.4,5.4,5.4,5.4c3,0,5.4-2.4,5.4-5.4C24,17.4,24,16.9,23.9,16.4z M5.4,22.3c-1.1,0-2.2-0.4-3-1.2
		c-0.8-0.8-1.3-2-1.3-3.1c0-0.6,0.1-1.2,0.3-1.7c0.7-1.6,2.3-2.7,4-2.7c1.2,0,2.3,0.5,3.1,1.3c0.7,0.8,1.1,1.7,1.2,2.8v0.3
		C9.8,20.4,7.8,22.3,5.4,22.3L5.4,22.3z M18.6,22.3c-1.1,0-2.2-0.4-3-1.2c-0.8-0.8-1.3-2-1.3-3.1v-0.3c0.1-2.3,2.1-4.1,4.4-4.1
		c1.2,0,2.3,0.5,3.1,1.3c0.5,0.5,0.8,1,1,1.7c0.1,0.4,0.2,0.9,0.2,1.4C23,20.3,21.1,22.3,18.6,22.3L18.6,22.3z"/>
</g>
<path id="Path_182" class="st0" d="M5.4,14.9c1.7,0,3,1.4,3,3c0,1.7-1.4,3-3,3c-1.7,0-3-1.3-3-3C2.4,16.3,3.7,14.9,5.4,14.9
	 M5.4,13.2c-2.6,0-4.7,2.1-4.7,4.7s2.1,4.7,4.7,4.7s4.7-2.1,4.7-4.7C10.1,15.3,8,13.2,5.4,13.2z"/>
<path id="Path_183" class="st0" d="M18.6,14.9c1.7,0,3,1.4,3,3c0,1.7-1.4,3-3,3c-1.7,0-3-1.3-3-3C15.6,16.3,17,14.9,18.6,14.9
	 M18.6,13.2c-2.6,0-4.7,2.1-4.7,4.7s2.1,4.7,4.7,4.7s4.7-2.1,4.7-4.7C23.3,15.3,21.2,13.2,18.6,13.2z"/>
</svg>
