<svg viewBox="0 0 328.232 214.902" xmlns="http://www.w3.org/2000/svg"><path d="m95.1 76.647 9.323 16.192h18.646l9.323-16.192-9.323-15.947h-18.646z" fill="#2a3e72" transform="translate(137.757 87.968)"/><path d="m83.7 83.047 9.323 16.193h18.646l9.323-16.192-9.323-15.948h-18.646z" fill="#f5c100" transform="translate(121.188 97.27)"/><path d="m49.6 89.692 9.323 16.192h18.646l9.323-16.192-9.323-16.192h-18.646z" fill="#672e7e" transform="translate(71.627 106.572)"/><path d="m106.3 70.392 9.323 16.192h18.646l9.323-16.192-9.323-16.192h-18.646z" fill="#2a3e72" transform="translate(154.035 78.521)"/><path d="m106.4 83.392 9.323 16.192h18.646l9.323-16.192-9.323-16.192h-18.646z" fill="#b11d57" transform="translate(154.18 97.415)"/><path d="m72.3 76.692 9.323 16.192h18.646l9.323-16.192-9.323-16.192h-18.646z" fill="#c91618" transform="translate(104.619 87.677)"/><path d="m83.8 70.392 9.323 16.192h18.646l9.323-16.192-9.323-16.192h-18.646z" fill="#a1c518" transform="translate(121.333 78.521)"/><path d="m115.078.2-9.078 16.192 9.078 16.192h18.646l9.323-16.192-9.324-16.192z" fill="#fff" transform="translate(153.599 .037)"/><path d="m106 16.392 9.078 16.192h18.646l9.323-16.192-9.324-16.192h-18.645z" fill="none" stroke="#f5c100" stroke-miterlimit="10" stroke-width=".474" transform="translate(153.599 .037)"/><path d="m106.5 57.392 9.323 15.947h18.646l9.323-15.947-9.323-16.192h-18.646z" fill="#2a3263" transform="translate(154.326 59.627)"/><path d="m117.7 37.892 9.323 16.192h18.646l9.323-16.192-9.323-16.192h-18.646z" fill="#2a3263" transform="translate(170.604 31.285)"/><path d="m106.4 31.492 9.323 15.947h18.4l9.323-15.947-9.323-16.192h-18.4z" fill="#2a3e72" transform="translate(154.18 21.983)"/><path d="m106.4 44.347 9.323 16.192h18.646l9.323-16.192-9.323-15.947h-18.646z" fill="#a1c518" transform="translate(154.18 41.023)"/><path d="m83.6 44.392 9.323 16.193h18.646l9.323-16.193-9.323-16.192h-18.646z" fill="#13a4cb" transform="translate(121.043 40.732)"/><path d="m61 83.147 9.323 16.193h18.646l9.323-16.193-9.323-15.947h-18.646z" fill="#00a4b0" transform="translate(88.196 97.415)"/><path d="m9.623 74.5-9.323 16.192 9.323 15.948h18.646l9.323-15.947-9.323-16.193z" fill="#fff" transform="translate(-.026 108.025)"/><path d="m.3 90.692 9.323 15.948h18.646l9.323-15.947-9.323-16.193h-18.646z" fill="none" stroke="#b11d57" stroke-miterlimit="10" stroke-width=".474" transform="translate(-.026 108.025)"/><path d="m117.5 77.092 9.323 16.192h18.646l9.323-16.192-9.323-16.192h-18.646z" fill="#13a4cb" transform="translate(170.313 88.259)"/><path d="m117.5 64.092 9.323 15.947h18.646l9.323-15.947-9.323-16.192h-18.646z" fill="#077fb0" transform="translate(170.313 69.364)"/><path d="m12.6 82.947 9.323 16.193h18.646l9.323-16.192-9.323-15.948h-18.646z" fill="none" stroke="#ca1618" stroke-miterlimit="10" stroke-width=".316" transform="translate(17.851 97.125)"/><path d="m118.7 23.492 9.323 15.947h18.646l9.323-15.947-9.323-16.192h-18.646z" fill="none" stroke="#672e7e" stroke-miterlimit="10" stroke-width=".316" transform="translate(172.057 10.356)"/><path d="m25.5 89.447 9.323 16.192h18.646l9.323-16.192-9.323-15.947h-18.646z" fill="#fff" transform="translate(36.6 106.572)"/><path d="m25.5 89.447 9.323 16.192h18.646l9.323-16.192-9.323-15.947h-18.646z" fill="none" stroke="#f5c100" stroke-miterlimit="10" stroke-width=".316" transform="translate(36.6 106.572)"/><path d="m38.3 83.192 9.323 16.192h18.646l9.323-16.192-9.323-16.192h-18.646z" fill="#9dbe20" transform="translate(55.203 97.125)"/></svg>