<svg enable-background="new 0 0 689.8 228.2" viewBox="0 0 689.8 228.2" xmlns="http://www.w3.org/2000/svg"><path d="m486.6 32.8c-2-1.3-4.1-1.9-7.7-1.9-6.4 0-10.7 4.7-10.7 10.9 0 6.6 4.7 10.9 10.5 10.9 2.8 0 3.5-.3 4.5-.5v-8.5h-5.9v-3.3h9.9v14.6c-1.5.5-4.2 1.2-8.5 1.2-8.8 0-14.7-5.7-14.7-14.6 0-8.6 6.2-14.3 14.8-14.3 4.1 0 5.9.6 8.2 1.4z"/><path d="m517 55.8h-4.4l-5.3-17.1h-.1l-5.2 17.1h-4.4l-6.6-20.4h4.1l4.7 16.9h.1l5.2-16.9h4.4l5.1 16.9h.1l5-16.9h3.7z"/><path d="m539.3 46.1c-.8 0-1.6-.1-2.4-.1-2 0-7.1.3-7.1 3.9 0 2.2 2.1 3.3 3.8 3.3 3.7 0 5.7-2.3 5.7-5.4zm-11.1-9.3c1.9-1.1 4.1-1.9 6.7-1.9 5.8 0 8.2 2.9 8.2 8.4v8.4c0 2.3.1 3.4.2 4h-3.5v-2.6h-.1c-.9 1.2-2.9 3.1-6.3 3.1-4.4 0-7.5-1.9-7.5-6.4 0-5.1 5.6-6.7 9.5-6.7 1.5 0 2.5 0 4 .1 0-3.5-1.3-5.3-5-5.3-2.1 0-4.4.8-5.9 2.1z"/><path d="m547.9 51.8c1.5 1 3.6 1.4 4.7 1.4 1.7 0 3.8-.7 3.8-2.9 0-3.7-8.8-3.4-8.8-9.1 0-4.2 3.2-6.3 7.2-6.3 1.8 0 3.2.4 4.7.8l-.3 3.3c-.8-.5-3.1-1-4-1-1.9 0-3.6.8-3.6 2.5 0 4.2 8.8 3 8.8 9.5 0 4.4-3.5 6.4-7.1 6.4-1.9 0-3.9-.2-5.6-1.1z"/><path d="m577.1 46.1c-.8 0-1.6-.1-2.4-.1-2 0-7.1.3-7.1 3.9 0 2.2 2.1 3.3 3.8 3.3 3.7 0 5.7-2.3 5.7-5.4zm-11.1-9.3c1.9-1.1 4.1-1.9 6.7-1.9 5.8 0 8.2 2.9 8.2 8.4v8.4c0 2.3.1 3.4.2 4h-3.5v-2.6h-.1c-.9 1.2-2.9 3.1-6.3 3.1-4.4 0-7.5-1.9-7.5-6.4 0-5.1 5.6-6.7 9.5-6.7 1.5 0 2.5 0 4 .1 0-3.5-1.3-5.3-5-5.3-2.1 0-4.4.8-5.9 2.1z"/><path d="m587.3 35.4h3.6v3.2h.1c1.1-2.3 3.8-3.7 6.7-3.7 5.3 0 7.6 3.3 7.6 8.8v12.1h-3.8v-10.6c0-4.8-1-7.1-4.3-7.3-4.3 0-6.2 3.4-6.2 8.4v9.4h-3.8v-20.3z"/><path d="m623.8 46.1c-.8 0-1.6-.1-2.4-.1-2 0-7.1.3-7.1 3.9 0 2.2 2.1 3.3 3.8 3.3 3.7 0 5.7-2.3 5.7-5.4zm-11.1-9.3c1.9-1.1 4.1-1.9 6.7-1.9 5.8 0 8.2 2.9 8.2 8.4v8.4c0 2.3.1 3.4.2 4h-3.5v-2.6h-.1c-.9 1.2-2.9 3.1-6.3 3.1-4.4 0-7.5-1.9-7.5-6.4 0-5.1 5.6-6.7 9.5-6.7 1.5 0 2.5 0 4 .1 0-3.5-1.3-5.3-5-5.3-2.1 0-4.4.8-5.9 2.1z"/><path d="m647.1 43.6c0-3.1-1.8-5.7-5.1-5.7-3.7 0-5.2 3-5.5 5.7zm2.5 11.4c-1.4.5-3.1 1.3-6.4 1.3-7.2 0-10.6-4.4-10.6-11 0-6 3.8-10.3 9.6-10.3 6.8 0 9 5 9 11.5h-14.6c0 4 3.2 6.8 6.7 6.8 2.5 0 5.4-1.3 6.3-2z"/><path d="m667 38.4h-5.4v11.2c0 2.4 1.4 3.6 3.2 3.6 1.2 0 2-.4 2.6-.7v3.2c-.8.2-2 .6-3.2.6-3.9 0-6.3-1.8-6.3-5.9v-12h-4.6v-3h4.6v-4.7l3.8-1.2v5.9h5.4z"/><path d="m671.7 25.8h3.8v12.5h.1c1.4-2.2 3.7-3.4 6.6-3.4 5.3 0 7.6 3.3 7.6 8.8v12.1h-3.8v-10.6c0-4.8-1-7.1-4.3-7.3-4.3 0-6.2 3.4-6.2 8.4v9.4h-3.8z"/><path d="m486.6 76.6c-2-1.3-4.1-1.9-7.7-1.9-6.4 0-10.7 4.7-10.7 10.9 0 6.6 4.7 10.9 10.5 10.9 2.8 0 3.5-.3 4.5-.5v-8.5h-5.9v-3.3h9.9v14.5c-1.5.5-4.2 1.2-8.5 1.2-8.8 0-14.7-5.7-14.7-14.6 0-8.6 6.2-14.3 14.8-14.3 4.1 0 5.9.6 8.2 1.4z"/><path d="m517 99.5h-4.4l-5.3-17.1h-.1l-5.2 17.1h-4.4l-6.6-20.4h4.1l4.9 16.9h.1l5.2-16.9h4.4l5.1 16.9h.1l5-16.9h3.7z"/><path d="m525.7 105.1c.5.2 1.1.3 1.8.3 3.4 0 4.5-4.6 4.5-5s-.5-1.5-.7-2.2l-6.9-19h4.1l5.5 16.9h.1l5.6-16.9h3.8l-7.5 20.8c-1.4 3.9-2.9 8.4-7.8 8.4-1.2 0-1.9-.2-2.6-.3z"/><path d="m557 81.7c-4.1 0-6 3.9-6 7.7 0 3.4 1.8 7.6 6 7.6 4 0 5.7-4.5 5.6-7.7.1-3.7-1.5-7.6-5.6-7.6zm-9.8-12.2h3.8v12.4h.1c1.2-1.9 3.2-3.3 6.8-3.3 5.9 0 8.8 4.8 8.8 10.3 0 5.6-2.6 11-8.8 11-3.6 0-6-1.8-7-3.4h-.1v2.9h-3.6z"/><path d="m580.7 97c4.4 0 6.4-4 6.4-7.6 0-3.9-2.4-7.6-6.4-7.6s-6.4 3.8-6.4 7.6c0 3.6 1.9 7.6 6.4 7.6zm0-18.3c6.2 0 10.4 4.5 10.4 10.7 0 5.8-4.2 10.7-10.4 10.7s-10.4-4.8-10.4-10.7c0-6.3 4.2-10.7 10.4-10.7"/><path d="m604.4 97c4.2 0 6-4.2 6-7.6 0-3.8-2-7.7-6-7.7-4.1 0-5.7 3.8-5.6 7.6-.1 3.2 1.5 7.7 5.6 7.7zm6.1-.3c-1.1 1.5-3.4 3.4-7 3.4-6.2 0-8.8-5.5-8.8-11s2.9-10.3 8.8-10.3c3.6 0 5.6 1.4 6.8 3.3h.1v-12.6h3.8v30h-3.6v-2.8z"/><path d="m633.7 87.4c0-3.1-1.8-5.7-5.1-5.7-3.7 0-5.2 3-5.5 5.7zm2.5 11.3c-1.4.5-3.1 1.3-6.4 1.3-7.2 0-10.6-4.4-10.6-11 0-6 3.8-10.3 9.6-10.3 6.8 0 9 5 9 11.5h-14.6c0 4 3.2 6.8 6.7 6.8 2.5 0 5.4-1.3 6.3-2z"/><path d="m657 89.6c0-4.2-2-7.9-6-7.9-3.8 0-5.7 4.1-5.7 7.6 0 3.8 2.2 7.2 5.7 7.2 3.6 0 6-3.1 6-6.9zm3.8 9.1c0 6.2-3.2 9.8-10.5 9.8-2.2 0-4-.3-7.3-1.4l.4-3.5c2.9 1.3 4.6 1.8 7.4 1.8 4 0 6.3-2.7 6.3-7v-2h-.1c-1.6 2.1-4.2 3.2-6.8 3.2-5.8 0-8.7-4.8-8.7-10s3-10.8 9.1-10.8c3.6 0 5.6 1.3 6.7 3.5h.1v-3h3.5z"/><path d="m465.4 165.2h4v-27.9h-4z"/><path d="m476.1 144.8h3.6v3.2h.1c1.1-2.3 3.8-3.7 6.7-3.7 5.3 0 7.6 3.3 7.6 8.8v12.1h-3.8v-10.6c0-4.8-1-7.1-4.3-7.3-4.3 0-6.2 3.4-6.2 8.4v9.4h-3.8z"/><path d="m503 147.9h-4.8v-3h4.8v-1.9c0-5 1.3-8.2 6.8-8.2 1 0 1.8.1 2.5.2l-.2 3c-.4-.2-1.2-.2-1.8-.2-3.2 0-3.6 2.1-3.6 4.8v2.2h5.4v3h-5.4v17.4h-3.7z"/><path d="m525.2 162.7c4.4 0 6.4-4 6.4-7.6 0-3.9-2.4-7.6-6.4-7.6s-6.4 3.8-6.4 7.6c0 3.6 1.9 7.6 6.4 7.6zm0-18.3c6.2 0 10.4 4.5 10.4 10.7 0 5.8-4.2 10.7-10.4 10.7s-10.4-4.8-10.4-10.7c0-6.3 4.1-10.7 10.4-10.7"/><path d="m540.6 144.8h3.5v3.2h.1c1-2.1 3.2-3.6 5.3-3.6 1.1 0 1.7.1 2.5.3v3.4c-.7-.3-1.4-.4-2.1-.4-3.4 0-5.6 3.2-5.6 8.3v9.3h-3.8z"/><path d="m556.1 144.8h3.5v3h.1c1.4-2.4 3.5-3.4 6.5-3.4 2.4 0 4.7 1.2 5.8 4 1.4-2.9 4.5-4 6.3-4 5.2 0 7.1 3.4 7.1 7.8v13.1h-3.8v-12.2c0-2.5-.6-5.7-3.6-5.7-3.8 0-5.4 3.8-5.4 7.6v10.3h-3.8v-12.2c0-2.5-.6-5.7-3.6-5.7-3.8 0-5.4 3.8-5.4 7.6v10.3h-3.8z"/><path d="m603.8 155.5c-.8 0-1.6-.1-2.4-.1-2 0-7.1.3-7.1 3.9 0 2.2 2.1 3.3 3.8 3.3 3.7 0 5.7-2.3 5.7-5.4zm-11.1-9.2c1.9-1.1 4.1-1.9 6.7-1.9 5.8 0 8.2 2.9 8.2 8.4v8.4c0 2.3.1 3.4.2 4h-3.5v-2.6h-.1c-.9 1.2-2.9 3.1-6.3 3.1-4.4 0-7.5-1.9-7.5-6.4 0-5.1 5.6-6.7 9.5-6.7 1.5 0 2.5 0 4 .1 0-3.5-1.3-5.3-5-5.3-2.1 0-4.4.8-5.9 2.1z"/><path d="m624.8 147.9h-5.4v11.1c0 2.4 1.4 3.6 3.2 3.6 1.2 0 2-.4 2.6-.7v3.2c-.8.2-2 .6-3.2.6-3.9 0-6.3-1.8-6.3-5.9v-11.9h-4.7v-3h4.6v-4.7l3.8-1.2v5.9h5.4z"/><path d="m630 144.8h3.8v20.4h-3.8zm4-4.5h-4.2v-4.3h4.2z"/><path d="m653.6 148.3c-1.4-.6-2.9-.9-4.1-.9-4.2 0-6.6 3.8-6.6 7.6 0 3.6 2 7.6 6.8 7.6 1.3 0 2.9-.4 4-1.2l.3 3.4c-1.6.7-3.4.8-4.7.8-6.2 0-10.4-4.8-10.4-10.7 0-6.2 4.2-10.7 10.4-10.7 1.5 0 3.5.4 4.6.8z"/><path d="m656.9 161.2c1.5 1 3.6 1.4 4.7 1.4 1.7 0 3.8-.7 3.8-2.9 0-3.7-8.8-3.4-8.8-9.1 0-4.2 3.2-6.3 7.2-6.3 1.8 0 3.2.4 4.7.8l-.3 3.3c-.8-.5-3.1-1-4-1-1.9 0-3.6.8-3.6 2.5 0 4.2 8.8 3 8.8 9.5 0 4.4-3.5 6.4-7.1 6.4-1.9 0-3.9-.2-5.6-1.1z"/><path d="m478.1 185.3c-2-.8-3.2-1.2-5.2-1.2-2.2 0-4.9.8-4.9 3.7 0 5.4 12 4.1 12 13.3 0 6-4.6 8.3-10.2 8.3-2 0-3.9-.6-5.7-1.2l.4-3.7c1.4.6 3.8 1.4 5.8 1.4 2.3 0 5.5-1.3 5.5-4.6 0-6.2-12-4.5-12-13.2 0-5 3.9-7.6 9-7.6 1.8 0 4 .3 6 1z"/><path d="m498.2 196.8c0-3.1-1.8-5.7-5.1-5.7-3.7 0-5.2 3-5.5 5.7zm2.5 11.3c-1.4.5-3.1 1.3-6.4 1.3-7.2 0-10.6-4.4-10.6-11 0-6 3.8-10.3 9.6-10.3 6.8 0 9 5 9 11.5h-14.6c0 4 3.2 6.8 6.7 6.8 2.5 0 5.4-1.3 6.3-2z"/><path d="m507.3 188.6h3.5v3.2h.1c1-2.1 3.2-3.6 5.3-3.6 1.1 0 1.7.1 2.5.3v3.4c-.7-.3-1.4-.4-2.1-.4-3.4 0-5.6 3.2-5.6 8.3v9.3h-3.8z"/><path d="m531.9 209h-4.5l-7.3-20.4h4.1l5.5 16.6h.1l5.6-16.6h3.8z"/><path d="m543.3 188.6h3.8v20.4h-3.8zm4-4.6h-4.2v-4.2h4.2z"/><path d="m566.9 192c-1.4-.6-2.9-.9-4.1-.9-4.2 0-6.6 3.8-6.6 7.6 0 3.6 2 7.6 6.8 7.6 1.3 0 2.9-.4 4-1.2l.3 3.4c-1.6.7-3.4.8-4.7.8-6.2 0-10.4-4.8-10.4-10.7 0-6.2 4.2-10.7 10.4-10.7 1.5 0 3.5.4 4.6.8z"/><path d="m584.9 196.8c0-3.1-1.8-5.7-5.1-5.7-3.7 0-5.2 3-5.5 5.7zm2.4 11.3c-1.4.5-3.1 1.3-6.4 1.3-7.2 0-10.6-4.4-10.6-11 0-6 3.8-10.3 9.6-10.3 6.8 0 9 5 9 11.5h-14.6c0 4 3.2 6.8 6.7 6.8 2.5 0 5.4-1.3 6.3-2z"/><path d="m435.4 214.2h3.8v-189.1h-3.8z"/><path d="m127.1 63.2c16.2-21.8 12.9-42.8-13.1-63.2-27.8 21.9-29 44.3-11.3 65.9 2.6 3.1 11.4 11.4 11.4 11.4s9.7-.2 24.5 5.7c0 0-6.7-11.8-16.4-20.1-11.1-9.6-23.5-26.8-8.1-41 10.4 9.6 8.1 20.5 2.1 29.6 0 0 .7 2.2 8.1 9.1 1 .9 1.9 1.8 2.8 2.6"/><path d="m111.5 79.2s-7.4 7.8-11.5 20.9c-3.7 11.7-4.1 23-4.1 23-6.2-1.5-15.4-9.1-15.4-9.1 1-14.3 6.4-26.7 6.4-26.7 4.3-11 13.4-19.3 13.4-19.3z"/><path d="m63.2 101c-21.8-16.2-42.8-12.9-63.2 13.1 21.9 27.9 44.3 29.1 65.9 11.4 3.1-2.6 11.4-11.4 11.4-11.4s-.2-9.7 5.7-24.5c0 0-11.8 6.7-20.1 16.4-9.6 11.1-26.8 23.5-41 8.1 9.6-10.4 20.5-8.1 29.6-2.1 0 0 2.2-.7 9.1-8.1.9-1.1 1.8-1.9 2.6-2.9"/><path d="m79.2 116.7s7.8 7.4 20.9 11.5c11.7 3.7 23 4.1 23 4.1-1.5 6.2-9.1 15.4-9.1 15.4-14.3-1-26.7-6.4-26.7-6.4-11-4.4-19.3-13.4-19.3-13.4z"/><path d="m101 165c-16.2 21.8-12.9 42.8 13.1 63.2 27.9-21.9 29.1-44.3 11.4-65.9-2.6-3.1-11.4-11.4-11.4-11.4s-9.7.2-24.5-5.7c0 0 6.7 11.8 16.4 20.1 11.1 9.6 23.5 26.8 8.1 41-10.4-9.6-8.1-20.6-2.1-29.6 0 0-.7-2.2-8.1-9.1-1-.9-1.9-1.9-2.9-2.6"/><path d="m116.7 149s7.4-7.8 11.5-20.9c3.7-11.7 4.1-23 4.1-23 6.2 1.5 15.4 9.1 15.4 9.1-1 14.3-6.4 26.7-6.4 26.7-4.2 11.1-13.3 19.3-13.3 19.3z"/><path d="m165 127.1c21.8 16.2 42.8 12.9 63.2-13.1-21.9-27.9-44.3-29.1-65.9-11.4-3.1 2.6-11.4 11.4-11.4 11.4s.2 9.7-5.7 24.5c0 0 11.8-6.7 20.1-16.4 9.6-11.1 26.8-23.5 41-8.1-9.6 10.4-20.6 8.1-29.6 2.1 0 0-2.2.7-9.1 8.1-.9 1.1-1.9 2-2.6 2.9"/><path d="m149 111.5s-7.8-7.4-20.9-11.5c-11.7-3.7-23-4.1-23-4.1 1.5-6.2 9.1-15.4 9.1-15.4 14.3 1 26.7 6.4 26.7 6.4 11.1 4.2 19.3 13.3 19.3 13.3z"/><path d="m25.2 89.7c3.9-1.2 8-1.9 12.3-1.9 1.7 0 3.4.1 5 .3 7.7-21.2 24.5-38 45.7-45.6-.2-1.6-.2-3.2-.2-4.8 0-4.4.7-8.6 2-12.5-31.5 8.4-56.3 33.1-64.8 64.5"/><path d="m89.7 203c-1.2-3.9-1.9-8-1.9-12.3 0-1.7.1-3.4.3-5-21.2-7.7-38-24.5-45.6-45.7-1.6.2-3.2.2-4.8.2-4.4 0-8.6-.7-12.5-2 8.4 31.5 33.1 56.2 64.5 64.8"/><path d="m203 138.5c-3.9 1.2-8 1.9-12.3 1.9-1.7 0-3.4-.1-5-.3-7.7 21.2-24.5 38-45.7 45.6.2 1.6.2 3.2.2 4.8 0 4.4-.7 8.6-2 12.5 31.5-8.5 56.2-33.1 64.8-64.5"/><path d="m138.5 25.2c1.2 3.9 1.9 8 1.9 12.3 0 1.7-.1 3.4-.3 5 21.2 7.7 38 24.5 45.6 45.7 1.6-.2 3.2-.2 4.8-.2 4.4 0 8.6.7 12.5 1.9-8.5-31.4-33.1-56.2-64.5-64.7"/><path d="m254.7 152.6v-26.1h1.3l38.5 41.1.5.5c.2-2.8.2-5.7.2-8.5v-25l-.3-6.3-.1-.6c1.1.2 2.3.2 3.4.2.6 0 1.3-.1 2-.2-.1.6-.1 1.3-.2 1.9l-.4 7.7-.7 18.5-.2 17.5.2 8.8h-1.2c-1.6-1.9-3.1-3.8-4.8-5.6l-12.7-14.2-21.8-23.2-.2 7.4c-.1 3.9 0 7.7 0 11.6v6.3l.2 9.2.4 7.5c-1.8-.3-3.6-.3-5.4 0 .3-3.4.5-6.9.6-10.3z"/><path d="m321 153.9.2 17 .3 8.4.2 1.7c-1.2-.1-2.4-.4-3.6-.4-1.4 0-2.7.3-4.1.4.1-.6.1-1.2.2-1.7l.3-6.2.3-18.3v-19.1l-.4-8.3c1.3.1 2.7.3 4 .3 1.2 0 2.4-.2 3.6-.2-.1.7-.1 1.4-.2 2.1l-.3 7.1-.4 13.6 10.1.2 22.4-.2v-16.6l-.4-6.3c1.3.1 2.7.3 4 .3 1.2 0 2.4-.2 3.7-.2-.2.7-.2 1.4-.2 2.1l-.7 25.5.2 17.6.4 8.3c-1.2-.1-2.3-.4-3.5-.4-1.4 0-2.7.3-4.1.4.1-.6.1-1.2.2-1.7l.4-8.1.2-17.4h-32.8z"/><path d="m373.6 170.7c3 5 6.6 8 12.7 8 6.3 0 10.9-5.1 10.9-11.3 0-5.2-3.5-7.9-7.9-9.8-3.7-1.7-7.7-3-11-5.2-3.5-2.3-5.6-6.5-5.6-10.7 0-10.1 8-15 17.4-15 3.8 0 8.3 1.2 11.2 3.8-.9 2-1.5 4.2-2.1 6.4h-.8c-1.6-4.2-5.1-7-9.7-7-5.4 0-9.9 3.8-9.9 9.4 0 3 1.1 5.4 3.4 7.3 1.2 1.1 1.6 1.2 3.1 1.9.9.5 2 .9 3 1.3 1.2.5 2.3.9 3.5 1.5 1.2.5 2.5 1 3.6 1.6 1.7.9 3.7 1.9 4.9 3.4 2 2.4 3.2 5.1 3.2 8.3 0 11.2-8.7 17.7-19.3 17.7-3.8 0-10.1-1.5-12.7-4.4.8-2.3 1.2-4.6 1.5-7z"/><path d="m263.6 213.7c-.5-.1-1.2-.2-1.7-.2-.6 0-1.2.1-1.8.2-2-7.5-4.3-15-6.6-22.4l-.2-1c.9.1 1.8.2 2.8.2.9 0 1.9-.1 2.8-.2 1.4 5.7 2.9 11.4 4.5 17.1 1.9-5.7 4.2-11.3 5.9-17.1.6.1 1.2.2 1.7.2s1.1-.1 1.7-.2c1.5 5.8 3.8 11.4 5.4 17.1 1.8-5.6 3.6-11.3 5.1-17.1.5.1 1 .2 1.5.2s1.1-.1 1.5-.2v.3c-2.8 7.6-5.5 15.3-7.8 23.1-.5-.1-1.2-.2-1.7-.2s-1.2.1-1.8.2c-1.5-5.6-3.5-11.2-5.4-16.6-1.9 5.4-3.9 10.8-5.8 16.3z"/><path d="m298.2 213.4 2.5-5.8c2.5-5.7 5-11.6 7.1-17.5.4.1.9.2 1.3.2s.9-.1 1.3-.2l.2.6c2.8 7.5 5.8 14.9 9 22.3l.2.4v.3c-1-.1-2-.2-2.9-.2-1 0-1.9.1-2.9.2-.7-2.4-1.4-4.7-2.4-7-1.3 0-2.5-.1-3.8-.1-1.4 0-2.8 0-4.2.1l-.2.5c-.8 2.1-1.6 4.3-2.2 6.5-.5-.1-1.1-.2-1.6-.2s-1.1.1-1.6.2zm6.5-8.8h6.3c-1-2.7-2-5.3-3-8-1.1 2.5-2.2 5.1-3.1 7.7z"/><path d="m334.1 190.3c.9.1 1.8.2 2.8.2s1.9-.1 2.8-.2c-.1 2.1-.2 4.1-.3 6.1v4 6.5c0 1.4.1 2.9.1 4.3l1.8-.1c2 0 4-.2 6-.4-.1.5-.1 1-.1 1.5s0 1 .1 1.5l-5.8-.2c-1.6 0-3.1.1-4.7.1-1 0-1.9 0-2.8.1.2-3.7.3-7.4.3-11.1 0-1.4 0-2.7 0-4.1 0-2.5-.1-5-.2-7.6z"/><path d="m362.1 190.3c1.8 0 3.6.2 5.4.2 2.6 0 5.2-.1 7.7-.2-.2.8-.2 1.7-.1 2.5 0 .1 0 .3.1.4-2.6-.2-5.2-.5-7.8-.4 0 1.2-.1 2.4-.1 3.6v3.8l7.8-.3c-.1.6-.2 1.1-.2 1.6 0 .4.1.9.2 1.3-2-.1-4-.2-6.1-.3-.5 0-1.1 0-1.7 0v4.3 4.3c2.6 0 5.3-.2 7.9-.4-.2.8-.2 1.7-.1 2.5 0 .1 0 .3.1.4-2 0-4.1-.2-6.2-.2-1.3 0-2.7.1-4 .1-1 0-2 0-3 .1.1-.7.1-1.3.1-1.9.1-2.1.1-4.2.2-6.4 0-1.7 0-3.5 0-5.2v-4c0-1.8-.1-3.6-.2-5.4z"/><path d="m400.9 194.9c-.7-1.8-2-2.9-3.9-2.9-1.1 0-1.9.1-2.7.9-.7.6-1 1.4-1 2.4 0 3.6 8.1 4.4 9.8 8.4.4.9.6 2.1.6 3 0 1-.4 2.3-.8 3.2-.8 1.6-2 2.6-3.6 3.3-1.5.7-2.9.9-4.6.9-1.9 0-3.9-.4-5.5-1.4.4-1.4.8-2.8 1-4.3h.6c.5 2.3 2.4 3.7 4.7 3.7 2.1 0 4-1.1 4-3.5 0-1.2-.4-1.8-1.3-2.6-1.2-.9-2.5-1.5-3.8-2.2-1-.4-1.8-1.1-2.7-1.7-1.7-1-2.4-3.2-2.4-5.1 0-2.4.8-3.9 2.6-5.4 1.7-1.3 3.2-1.7 5.3-1.7 1.8 0 3.5.4 5.1 1.4.1.1.2.1.3.2-.4 1.1-.8 2.2-1.1 3.4z"/><path d="m274.8 110.6-.8 2.9c-2.1 1.1-4.5 1.5-6.8 1.5-1.7 0-2.8-.2-4.5-.5-1-.2-2.9-1.1-3.8-1.7s-1.8-1.6-2.5-2.4c-1.5-2-2.2-4.2-2.2-6.8 0-3.9 1-7.1 3.9-9.7 2.6-2.3 6.3-3.1 9.7-3.1 2.3 0 5 .6 7 1.6-.3 1.2-.5 2.3-.8 3.5h-.5c-1.3-1.8-3.5-3-5.7-3-5.7 0-8 5.3-8 10.3 0 2.4.5 5 2 6.9 1.4 1.9 3.8 2.9 6.2 2.9 2.1 0 4.6-1.1 6.1-2.5z"/><path d="m288.1 91.3c1 0 2.1-.1 3-.2.5 1 1 2 1.4 3 .5 1.1 1 2.2 1.5 3.2s1 2 1.5 3c.2.4.4.9.7 1.1 0 .1.5-.6.5-.7.2-.3.4-.7.6-1.1.7-1.3 1.4-2.7 2-4 .4-.9.9-1.9 1.3-2.8.2-.6.5-1.1.8-1.7.1 0 .3 0 .4.1.9.2 1.9.1 2.8-.1-2.4 4.5-5 8.6-7.1 13 0 1.3-.1 2.6-.1 3.9 0 2.2.2 4.3.3 6.5-1-.1-2-.2-2.9-.2-1 0-2 .1-2.9.2.2-2.6.4-5.2.4-7.8 0-.6 0-1.3 0-1.9-2.6-4.4-4.8-9-7.4-13.7 1.2.1 2.2.2 3.2.2"/><path d="m317.9 91.1c.4 0 .9.2 1.4.2s1-.1 1.4-.2c2.5 5.5 5.2 10.8 7.9 16.2l2-3.9c2.1-4 4.1-8.1 6-12.2.1 0 .2 0 .4.1.9.1 1.7.1 2.5-.1.6 5.3 1.2 10.7 1.9 16 .2 2 .5 4 .8 6 .1.4.2 1 .2 1.4-.9-.1-1.9-.2-2.8-.2s-1.8.1-2.8.2c-.2-5.3-.9-10.5-1.4-15.8-2.6 5.2-5.2 10.5-7.6 15.8-.4-.1-.9-.1-1.3 0l-2.6-5.5c-1.6-3.3-3.3-6.6-4.9-9.9-.2 2-.5 4-.7 6.1-.1 1.3-.2 2.6-.3 3.9-.1 1.1-.2 2.2-.2 3.4 0 .7-.1 1.4-.1 2.1-.5-.1-1.1-.2-1.6-.2s-1.1.1-1.6.2c0-.3.2-1 .2-1.3.4-1.7.6-3.5.9-5.2.4-2.2.6-4.4 1-6.7z"/><path d="m360.7 105.6c-.3-.6-.6-1.2-1-1.7-.1-.1-.1-.2-.2-.2 0 0-.2 0-.2.2 0 2 .1 4.1.1 6.1v.9c0 1.2.2 2.4.2 3.6-.9-.1-1.8-.2-2.8-.2s-1.8.1-2.8.2v-.7c0-.8.1-1.5.1-2.3.2-2.2.2-4.5.2-6.7 0-2.1 0-4.1 0-6.2 0-2.5-.1-5-.2-7.6l2.4.1c1.6 0 3.3-.1 4.9-.1s4.1-.1 5.5.7c2 1.1 3 2.7 3 5 0 3.4-2.2 5.5-5.3 6.2 1.9 3.3 4 6.4 6.1 9.6l1.2 1.9c-1-.1-2.1-.2-3.1-.2s-2.1.1-3.1.2l-4-7zm-1.3-8.5v2.7 2.5c3.6.3 5.3-1.4 5.3-4.9 0-.7 0-1-.2-1.7-.6-2.8-2.8-2.5-5.1-2.6z"/><path d="m404.1 96.1c0 1.1-.1 2.2-.1 3.4 0 1.3-.1 2.5-.1 3.8-.1 3.9 0 7.5-3.6 9.9-1.9 1.3-4.2 1.8-6.5 1.8-4.1 0-8.6-1.3-9.9-5.7-.2-.6-.2-1.2-.3-1.8-.1-.8-.1-1.6-.1-2.4 0-1.4-.1-2.8-.1-4.2s0-2.8 0-4.3c0-1.3 0-2.6 0-3.9 0-.5-.1-1-.1-1.4 1 .1 1.9.2 2.8.2s1.9-.1 2.8-.2c0 .5-.1 1.1-.2 1.7-.2 2.7-.3 5.3-.3 8 0 1.9-.1 4.7.2 6.5.3 1.7.6 2.7 1.8 3.9 1.1 1 2.4 1.5 3.9 1.5 3.2 0 4.9-1.2 6.1-4.1.6-1.5.6-5.4.6-7.1 0-3.4 0-6.9-.3-10.3.6.1 1.2.2 1.7.2.6 0 1.2-.1 1.7-.2.1 1.3.1 3 0 4.7"/><path d="m332.5 53.7.2 17 .3 8.4.2 1.7c-1.2-.1-2.4-.4-3.6-.4-1.4 0-2.7.3-4.1.4.1-.5.1-1.2.2-1.7l.3-6.2.3-18.3v-19.1l-.4-8.3c1.3.1 2.7.3 4 .3 1.2 0 2.4-.2 3.6-.2-.1.7-.1 1.4-.2 2.1l-.3 7.1-.4 13.6z"/><path d="m310.6 77c.9 3.2-16.1 4.3-22.4 4.3-20.4 0-36.6-10.5-36.6-28.1 0-16.6 16.2-28.1 36.6-28.1 7.3 0 14.9 1.3 21.3 3.8l-3.3 5.3c-4.5-2-11.1-3.5-18-3.5-16.1 0-27.4 10-27.4 22.5s11.4 22.5 27.4 22.5c4.8 0 10.1-.9 13.9-2.3l1.1-.9v-16.1l-.4-8.3c1.3.1 3.9.3 5.2.3 1.2 0 2.4-.2 3.6-.2-.1.7-.1 1.4-.2 2.1l-.3 7.1z"/><path d="m402.5 77c.9 3.2-16.1 4.3-22.4 4.3-20.4 0-36.6-10.5-36.6-28.1 0-16.6 16.2-28.1 36.6-28.1 7.3 0 14.9 1.3 21.3 3.8l-3.3 5.3c-4.5-2-11.1-3.5-18-3.5-16.1 0-27.4 10-27.4 22.5s11.4 22.5 27.4 22.5c4.8 0 10.1-.9 13.9-2.3l1.1-.9v-16.1l-.4-8.3c1.3.1 3.9.3 5.2.3 1.2 0 2.4-.2 3.6-.2-.1.7-.1 1.4-.2 2.1l-.3 7.1z"/></svg>