<svg height="228.1875" viewBox="0 0 689.77502 228.1875" width="689.77502" xmlns="http://www.w3.org/2000/svg" xmlns:xlink="http://www.w3.org/1999/xlink"><clipPath id="a"><path d="m0 0h5518v1825.52h-5518z"/></clipPath><g clip-path="url(#a)" fill="#fff" transform="matrix(.125 0 0 -.125 0 228.1875)"><path d="m3892.56 1562.79c-15.68 10.24-32.63 15.36-61.43 15.36-51.52 0-85.75-37.44-85.75-87.36 0-52.47 37.75-87.35 84.15-87.35 22.08 0 27.84 2.25 35.84 3.84v67.84h-47.05v26.23h79.04v-116.14c-12.16-4.16-33.27-9.92-68.16-9.92-70.71 0-117.74 45.44-117.74 116.46 0 68.8 49.91 114.56 118.07 114.56 32.63 0 47.04-4.8 65.59-11.2z"/><path d="m4135.76 1379.13h-34.88l-42.24 136.95h-.64l-41.28-136.95h-34.87l-52.48 163.18h32.96l37.44-135.03h.63l41.61 135.03h35.51l40.96-135.03h.64l39.67 135.03h29.45z"/><path d="m4314.64 1456.88c-6.39 0-12.79.64-19.2.64-16.31 0-56.63-2.57-56.63-31.36 0-17.28 16.64-26.56 30.4-26.56 29.76 0 45.43 18.56 45.43 42.88zm-89.26 73.91c15.03 8.96 32.94 15.37 53.75 15.37 46.71 0 65.59-23.04 65.59-67.52v-67.51c0-18.57.65-27.21 1.28-32h-28.15v21.12h-.65c-7.03-9.93-23.04-24.96-50.56-24.96-35.19 0-59.83 15.36-59.83 50.87 0 40.96 44.8 53.75 75.84 53.75 11.84 0 20.16 0 31.99-.63 0 28.15-10.23 42.55-40.31 42.55-16.96 0-35.2-6.4-47.36-16.63z"/><path d="m4383.45 1411.13c11.84-7.69 28.8-11.53 37.44-11.53 13.76 0 30.72 5.76 30.72 23.36 0 29.76-70.72 27.2-70.72 72.95 0 33.93 25.29 50.25 57.6 50.25 14.08 0 25.6-2.89 37.43-6.41l-2.56-26.23c-6.72 4.16-24.64 8.31-31.68 8.31-15.35 0-28.79-6.4-28.79-19.83 0-33.29 70.72-23.69 70.72-75.84 0-34.88-27.84-50.87-56.96-50.87-15.36 0-31.04 1.6-44.8 8.95z"/><path d="m4617.04 1456.88c-6.39 0-12.79.64-19.19.64-16.32 0-56.64-2.57-56.64-31.36 0-17.28 16.65-26.56 30.41-26.56 29.75 0 45.42 18.56 45.42 42.88zm-89.26 73.91c15.04 8.96 32.95 15.37 53.75 15.37 46.72 0 65.59-23.04 65.59-67.52v-67.51c0-18.57.65-27.21 1.28-32h-28.15v21.12h-.65c-7.03-9.93-23.03-24.96-50.55-24.96-35.2 0-59.84 15.36-59.84 50.87 0 40.96 44.8 53.75 75.84 53.75 11.84 0 20.16 0 31.99-.63 0 28.15-10.23 42.55-40.31 42.55-16.96 0-35.19-6.4-47.36-16.63z"/><path d="m4698.01 1542.31h29.12v-25.92h.64c8.96 18.56 30.72 29.77 53.44 29.77 42.23 0 61.12-26.25 61.12-70.08v-96.95h-30.08v84.47c0 38.07-8.32 56.64-34.56 58.23-34.24 0-49.6-27.51-49.6-67.19v-75.51h-30.08z"/><path d="m4990.48 1456.88c-6.39 0-12.79.64-19.2.64-16.32 0-56.63-2.57-56.63-31.36 0-17.28 16.64-26.56 30.4-26.56 29.76 0 45.43 18.56 45.43 42.88zm-89.27 73.91c15.04 8.96 32.95 15.37 53.75 15.37 46.72 0 65.6-23.04 65.6-67.52v-67.51c0-18.57.65-27.21 1.28-32h-28.15v21.12h-.65c-7.03-9.93-23.04-24.96-50.56-24.96-35.19 0-59.83 15.36-59.83 50.87 0 40.96 44.8 53.75 75.84 53.75 11.84 0 20.16 0 31.99-.63 0 28.15-10.23 42.55-40.31 42.55-16.96 0-35.2-6.4-47.36-16.63z"/><path d="m5177.04 1476.4c0 24.95-14.71 45.43-40.63 45.43-29.44 0-41.6-24.32-43.84-45.43zm19.53-90.56c-11.53-4.16-24.64-10.55-51.53-10.55-57.91 0-84.47 35.19-84.47 88.31 0 48.32 30.4 82.56 76.47 82.56 54.4 0 72-39.68 72-92.16h-116.47c0-32.32 25.28-54.4 53.75-54.4 19.85 0 42.88 10.24 50.25 16.32z"/><path d="m5336.09 1517.99h-43.21v-89.27c0-18.88 11.53-29.12 25.29-29.12 9.28 0 15.99 2.88 20.48 5.76v-25.59c-6.72-1.93-16-4.48-25.6-4.48-31.04 0-50.24 14.71-50.24 47.35v95.35h-36.8v24.32h36.8v37.76l30.07 9.6v-47.36h43.21z"/><path d="m5373.84 1619.11h30.08v-100.15h.64c10.88 17.27 29.76 27.2 52.47 27.2 42.24 0 61.13-26.25 61.13-70.08v-96.95h-30.08v84.47c0 38.07-8.32 56.64-34.56 58.23-34.24 0-49.6-27.51-49.6-67.19v-75.51h-30.08z"/><path d="m3892.56 1212.79c-15.68 10.24-32.63 15.36-61.43 15.36-51.52 0-85.75-37.44-85.75-87.36 0-52.47 37.75-87.35 84.15-87.35 22.08 0 27.84 2.25 35.84 3.84v67.84h-47.05v26.23h79.04v-116.14c-12.16-4.16-33.27-9.92-68.16-9.92-70.71 0-117.74 45.44-117.74 116.46 0 68.8 49.91 114.56 118.07 114.56 32.63 0 47.04-4.8 65.59-11.2z"/><path d="m4135.76 1029.13h-34.88l-42.24 136.95h-.64l-41.28-136.95h-34.87l-52.48 163.18h32.96l37.44-135.03h.63l41.61 135.03h35.51l40.96-135.03h.64l39.67 135.03h29.45z"/><path d="m4205.53 984.965c3.84-1.281 8.97-2.559 14.08-2.559 26.88 0 35.84 37.114 35.84 40.324 0 3.51-3.84 11.83-5.76 17.27l-55.36 152.31h32.96l43.84-135.03h.64l44.8 135.03h30.4l-60.16-166.7c-11.2-31.36-23.04-67.52-62.71-67.52-9.6 0-15.04 1.277-20.48 2.234z"/><path d="m4456.09 1171.83c-32.64 0-48.32-31.04-48.32-61.44 0-27.19 14.08-60.79 48-60.79 32.31 0 45.76 36.17 45.11 61.76.65 29.43-12.16 60.47-44.79 60.47zm-78.4 97.28h30.08v-99.2h.64c9.28 15.04 25.6 26.25 54.07 26.25 47.36 0 70.4-38.73 70.4-82.56 0-44.8-20.8-88.31-70.07-88.31-29.12 0-47.68 14.71-55.68 26.87h-.64v-23.03h-28.8z"/><path d="m4645.52 1049.6c35.21 0 50.88 32.01 50.88 61.11 0 31.04-18.88 61.12-50.88 61.12-32.31 0-51.19-30.08-51.19-61.12 0-29.1 15.67-61.11 51.19-61.11zm0 146.56c49.6 0 82.88-35.84 82.88-85.45 0-46.71-33.92-85.42-82.88-85.42-49.28 0-83.19 38.71-83.19 85.42 0 49.61 33.28 85.45 83.19 85.45"/><path d="m4834.96 1049.6c33.92 0 48 33.6 48 60.79 0 30.4-15.68 61.44-48.32 61.44-32.63 0-45.44-30.71-44.79-60.47-.65-25.59 12.79-61.76 45.11-61.76zm49.28 2.56h-.64c-8-12.16-26.56-26.87-55.68-26.87-49.27 0-70.07 43.84-70.07 88.31 0 43.83 23.03 82.56 70.4 82.56 28.47 0 44.79-11.21 54.07-26.25h.64v99.2h30.08v-239.98h-28.8z"/><path d="m5069.84 1126.4c0 24.95-14.72 45.43-40.64 45.43-29.44 0-41.6-24.32-43.83-45.43zm19.52-90.56c-11.52-4.16-24.64-10.55-51.52-10.55-57.91 0-84.48 35.19-84.48 88.31 0 48.32 30.4 82.56 76.48 82.56 54.39 0 71.99-39.68 71.99-92.16h-116.46c0-32.32 25.27-54.4 53.75-54.4 19.84 0 42.88 10.24 50.24 16.32z"/><path d="m5256.4 1108.8c0 33.92-15.68 63.03-47.69 63.03-30.39 0-45.43-32.95-45.43-60.79 0-30.72 17.28-57.6 45.43-57.6 28.17 0 47.69 24.96 47.69 55.36zm30.08-72.64c0-49.594-25.61-78.07-84.16-78.07-17.28 0-32.32 2.234-58.56 11.199l3.21 27.832c23.03-10.555 36.79-14.715 58.87-14.715 31.67 0 50.56 21.444 50.56 55.994v16h-.64c-12.81-16.95-33.92-25.27-54.72-25.27-46.72 0-69.76 38.07-69.76 80.31 0 41.91 23.68 86.72 72.96 86.72 28.8 0 44.8-10.57 53.75-28.17h.65v24.32h27.84z"/><path d="m3722.97 503.582h32v223.34h-32z"/><path d="m3809.06 666.77h29.12v-25.918h.63c8.97 18.558 30.73 29.757 53.44 29.757 42.24 0 61.12-26.238 61.12-70.078v-96.949h-30.08v84.469c0 38.078-8.32 56.648-34.56 58.238-34.23 0-49.6-27.508-49.6-67.187v-75.52h-30.07z"/><path d="m4024.1 642.449h-38.4v24.321h38.4v15.031c0 39.679 10.23 65.597 54.71 65.597 7.68 0 14.08-.957 20.16-1.918l-1.28-24.32c-3.52 1.281-9.28 1.918-14.4 1.918-25.91 0-29.12-16.637-29.12-38.707v-17.601h43.2v-24.321h-43.2v-138.867h-30.07z"/><path d="m4201.37 524.059c35.2 0 50.88 32 50.88 61.113 0 31.039-18.88 61.117-50.88 61.117-32.31 0-51.19-30.078-51.19-61.117 0-29.113 15.67-61.113 51.19-61.113zm0 146.55c49.6 0 82.88-35.839 82.88-85.437 0-46.723-33.92-85.434-82.88-85.434-49.28 0-83.19 38.711-83.19 85.434 0 49.598 33.28 85.437 83.19 85.437"/><path d="m4324.57 666.77h28.17v-25.282h.63c8 16.961 25.29 29.121 42.56 29.121 8.96 0 13.44-.961 19.84-2.238v-26.883c-5.44 2.242-11.52 2.883-16.64 2.883-26.88 0-44.48-25.59-44.48-66.551v-74.238h-30.08z"/><path d="m4448.73 666.77h28.17v-23.68h.63c11.53 18.879 27.85 27.519 51.84 27.519 18.89 0 37.76-9.597 46.4-31.679 11.2 23.359 35.84 31.679 50.55 31.679 41.6 0 56.64-26.879 56.64-62.398v-104.629h-30.08v97.277c0 20.153-4.8 45.43-29.12 45.43-30.71 0-42.87-30.078-42.87-60.469v-82.238h-30.08v97.277c0 20.153-4.8 45.43-29.12 45.43-30.71 0-42.88-30.078-42.88-60.469v-82.238h-30.08z"/><path d="m4830.48 581.34c-6.39 0-12.79.64-19.2.64-16.32 0-56.63-2.57-56.63-31.359 0-17.281 16.64-26.562 30.4-26.562 29.76 0 45.43 18.562 45.43 42.882zm-89.27 73.91c15.04 8.961 32.95 15.359 53.75 15.359 46.72 0 65.6-23.027 65.6-67.519v-67.512c0-18.558.65-27.199 1.28-31.996h-28.15v21.117h-.65c-7.03-9.918-23.04-24.961-50.56-24.961-35.19 0-59.83 15.371-59.83 50.883 0 40.961 44.8 53.75 75.84 53.75 11.84 0 20.16 0 31.99-.633 0 28.153-10.23 42.551-40.31 42.551-16.96 0-35.2-6.398-47.36-16.629z"/><path d="m4998.17 642.449h-43.21v-89.269c0-18.891 11.53-29.121 25.29-29.121 9.28 0 15.99 2.882 20.48 5.761v-25.59c-6.72-1.929-16-4.492-25.6-4.492-31.04 0-50.24 14.723-50.24 47.364v95.347h-36.8v24.321h36.8v37.75l30.07 9.601v-47.351h43.21z"/><path d="m5039.77 666.77h30.08v-163.188h-30.08zm32 36.468h-33.91v33.922h33.91z"/><path d="m5228.57 639.262c-11.52 4.789-23.04 7.027-32.64 7.027-33.59 0-52.47-30.078-52.47-61.117 0-29.113 15.67-61.113 54.4-61.113 10.23 0 23.03 3.203 32.31 9.281l2.24-26.879c-12.47-5.762-26.88-6.723-37.76-6.723-49.28 0-83.19 38.711-83.19 85.434 0 49.598 33.28 85.437 83.19 85.437 12.16 0 27.84-2.879 36.48-6.398z"/><path d="m5254.81 535.578c11.83-7.68 28.8-11.519 37.44-11.519 13.76 0 30.71 5.761 30.71 23.363 0 29.758-70.71 27.199-70.71 72.949 0 33.918 25.28 50.238 57.6 50.238 14.08 0 25.59-2.879 37.43-6.398l-2.56-26.231c-6.72 4.161-24.64 8.309-31.67 8.309-15.36 0-28.8-6.398-28.8-19.84 0-33.277 70.71-23.679 70.71-75.828 0-34.883-27.84-50.883-56.95-50.883-15.36 0-31.04 1.614-44.8 8.961z"/><path d="m3824.41 343.332c-16.32 6.387-25.28 9.277-41.92 9.277-17.92 0-39.04-6.398-39.04-29.757 0-42.883 96-32.961 96-106.551 0-47.68-36.8-66.563-81.59-66.563-15.69 0-31.05 4.492-45.77 9.282l3.21 29.761c10.88-4.492 30.08-10.883 46.39-10.883 18.24 0 43.84 10.243 43.84 36.473 0 49.918-95.99 36.16-95.99 105.598 0 39.679 31.35 60.801 71.67 60.801 14.72 0 32.32-2.571 47.68-8.008z"/><path d="m3985.69 250.859c0 24.95-14.72 45.43-40.64 45.43-29.44 0-41.6-24.32-43.84-45.43zm19.52-90.558c-11.52-4.16-24.64-10.563-51.52-10.563-57.91 0-84.48 35.203-84.48 88.313 0 48.32 30.4 82.558 76.48 82.558 54.39 0 71.99-39.668 71.99-92.16h-116.47c0-32.308 25.28-54.39 53.75-54.39 19.85 0 42.89 10.23 50.25 16.32z"/><path d="m4058.01 316.77h28.17v-25.282h.63c8 16.961 25.28 29.121 42.56 29.121 8.95 0 13.44-.961 19.83-2.238v-26.883c-5.44 2.242-11.51 2.883-16.63 2.883-26.88 0-44.48-25.59-44.48-66.551v-74.238h-30.08z"/><path d="m4254.81 153.582h-35.83l-58.57 163.188h32.96l44.16-133.11h.64l45.12 133.11h30.07z"/><path d="m4346.33 316.77h30.08v-163.188h-30.08zm32 36.48h-33.91v33.922h33.91z"/><path d="m4535.13 289.262c-11.51 4.789-23.04 7.027-32.64 7.027-33.59 0-52.47-30.078-52.47-61.117 0-29.113 15.68-61.113 54.4-61.113 10.23 0 23.04 3.203 32.31 9.281l2.24-26.879c-12.47-5.762-26.88-6.723-37.76-6.723-49.27 0-83.19 38.711-83.19 85.434 0 49.598 33.28 85.437 83.19 85.437 12.16 0 27.85-2.879 36.48-6.398z"/><path d="m4679.13 250.859c0 24.95-14.72 45.43-40.64 45.43-29.44 0-41.6-24.32-43.84-45.43zm19.52-90.558c-11.53-4.16-24.64-10.563-51.53-10.563-57.91 0-84.47 35.203-84.47 88.313 0 48.32 30.4 82.558 76.48 82.558 54.39 0 71.99-39.668 71.99-92.16h-116.47c0-32.308 25.28-54.39 53.75-54.39 19.85 0 42.88 10.23 50.25 16.32z"/><path d="m3483.31 112.281h30v1512.67h-30z"/><path d="m1017.16 1319.95c129.8 174.69 103.53 342.46-104.543 505.57-223.082-174.86-232.961-354.59-91.004-526.98 20.992-24.53 91.004-91.06 91.004-91.06s77.809 1.49 196.133-45.48c0 0-53.74 94.14-130.973 160.8-88.988 76.75-187.91 214.1-65.16 327.9 82.86-76.83 64.699-164.38 16.789-236.78 0 0 5.461-17.52 64.692-72.53 8.562-7.94 15.282-15.43 23.062-21.44"/><path d="m891.707 1192.13s-58.93-62.67-91.891-167.47c-29.425-93.496-32.421-184.168-32.421-184.168-49.684 11.746-122.856 73.074-122.856 73.074 8.133 114.594 51.488 213.314 51.488 213.314 33.879 88.5 106.34 154.69 106.34 154.69z"/><path d="m505.535 1017.2c-174.668 129.78-342.469 103.53-505.535-104.559 174.828-223.051 354.555-232.95 526.957-90.981 24.539 20.988 91.039 90.981 91.039 90.981s-1.461 77.832 45.531 196.159c0 0-94.148-53.74-160.808-130.976-76.793-88.992-214.09-187.914-327.93-65.183 76.848 82.879 164.399 64.707 236.809 16.804 0 0 17.488 5.469 72.515 64.7 7.922 8.555 15.442 15.295 21.422 23.055"/><path d="m633.352 891.75s62.671-58.926 167.472-91.898c93.492-29.422 184.168-32.411 184.168-32.411-11.746-49.671-73.047-122.871-73.047-122.871-114.621 8.149-213.308 51.5-213.308 51.5-88.539 33.879-154.703 106.352-154.703 106.352z"/><path d="m808.281 505.559c-129.781-174.629-103.508-342.457 104.559-505.5472812 223.06 174.8402812 232.96 354.5902812 91.02 526.9682812-21.001 24.532-91.02 91.071-91.02 91.071s-77.785-1.492-196.149 45.488c0 0 53.743-94.109 131.004-160.789 88.981-76.789 187.895-214.102 65.145-327.941-82.879 76.839-64.695 164.402-16.766 236.832 0 0-5.484 17.488-64.73 72.5-8.531 7.929-15.281 15.461-23.063 21.418"/><path d="m933.75 633.398s58.926 62.672 91.9 167.473c29.41 93.496 32.41 184.172 32.41 184.172 49.67-11.758 122.86-73.047 122.86-73.047-8.15-114.617-51.49-213.305-51.49-213.305-33.88-88.55-106.35-154.75-106.35-154.75z"/><path d="m1319.9 808.32c174.69-129.761 342.48-103.511 505.57 104.563-174.86 223.067-354.58 232.967-526.98 90.987-24.53-20.995-91.05-90.987-91.05-90.987s1.48-77.781-45.49-196.153c0 0 94.14 53.739 160.8 131.008 76.78 88.965 214.1 187.882 327.92 65.145-76.85-82.879-164.4-64.695-236.8-16.766 0 0-17.5-5.5-72.53-64.726-7.94-8.539-15.43-15.289-21.44-23.071"/><path d="m1192.08 933.773s-62.66 58.934-167.45 91.917c-93.497 29.42-184.165 32.4-184.165 32.4 11.726 49.69 73.058 122.87 73.058 122.87 114.607-8.14 213.307-51.5 213.307-51.5 88.51-33.88 154.69-106.34 154.69-106.34z"/><path d="m201.277 1108.08c30.922 9.83 63.883 15.22 98.063 15.22 13.703 0 27.109-.79 40.383-2.44 61.515 169.29 196.257 303.74 365.617 365.11-1.512 12.69-1.891 25.64-1.891 38.72 0 34.85 5.399 68.43 15.633 99.85-251.105-68.13-449.102-265.59-517.805-516.46"/><path d="m717.418 201.309c-9.84 30.91-15.203 63.871-15.203 98.05 0 13.692.773 27.121 2.433 40.391-169.3 61.512-303.75 196.262-365.14 365.641-12.68-1.512-25.633-1.891-38.688-1.891-34.875 0-68.441 5.391-99.882 15.629 68.171-251.109 265.597-449.117 516.48-517.82"/><path d="m1624.19 717.449c-30.91-9.828-63.89-15.187-98.08-15.187-13.68 0-27.13.758-40.35 2.437-61.55-169.301-196.29-303.777-365.62-365.148 1.5-12.699 1.87-25.653 1.87-38.692 0-34.89-5.39-68.461-15.61-99.89 251.09 68.133 449.07 265.59 517.79 516.48"/><path d="m1108.04 1624.2c9.86-30.89 15.22-63.88 15.22-98.06 0-13.68-.79-27.1-2.44-40.37 169.29-61.51 303.74-196.23 365.13-365.59 12.66 1.51 25.61 1.86 38.7 1.86 34.86 0 68.41-5.41 99.89-15.6-68.17 251.09-265.64 449.07-516.5 517.76"/><path d="m2037.45 604.691v208.911h10.64l307.72-329 4.36-3.743c1.28 22.539 1.89 45.661 1.89 68.161v200.14l-2.5 50.078-.62 4.973c8.76-1.231 18.14-1.852 26.9-1.852 4.98 0 10.62.621 15.64 1.852-.62-4.973-.62-10-1.28-15.02l-3.12-61.293-5.64-148.207-1.85-140.101 1.85-70.692h-9.38c-12.51 15.032-25.01 30.032-38.14 44.411l-101.94 113.211-174.51 185.75-1.24-58.801c-.63-31.258 0-61.91 0-92.539v-50.039l1.86-73.821 3.14-60.05c-14.38 2.5-28.77 2.5-43.15 0 2.5 27.511 4.38 55.039 5 82.57z"/><path d="m2568.33 594.059 1.89-135.7 2.51-67.55 1.23-13.789c-9.38.652-19.37 3.121-28.75 3.121-11.27 0-21.89-2.469-33.16-3.121.62 4.402.62 9.41 1.27 13.789l2.51 49.402 2.47 146.328v152.633l-3.12 66.316c10.65-.66 21.26-2.508 31.92-2.508 9.38 0 19.37 1.239 28.75 1.848-.61-5.598-.61-11.226-1.23-16.867l-2.51-56.902-3.13-108.848 80.68-1.902 178.88 1.902v132.598l-3.13 50.679c10.62-.66 21.27-2.508 31.89-2.508 10 0 19.41 1.239 29.41 1.848-1.24-5.598-1.24-11.226-1.89-16.867l-5.64-203.902 1.89-140.719 3.13-66.32c-9.38.652-18.76 3.121-28.14 3.121-11.27 0-21.89-2.469-33.16-3.121.62 4.402.62 9.41 1.27 13.789l3.13 64.41 1.86 138.84z"/><path d="m2988.55 459.59c24.4-40.031 52.54-63.781 101.34-63.781 50.64 0 86.93 40.66 86.93 90.07 0 41.883-28.14 63.141-63.19 78.769-29.39 13.793-61.31 23.793-88.18 41.922-28.17 18.77-44.43 51.93-44.43 85.7 0 80.671 63.81 120.089 138.86 120.089 30.03 0 66.32-9.39 89.44-30.027-7.49-16.25-11.89-33.773-16.87-51.262h-6.25c-13.16 33.739-40.65 56.282-77.55 56.282-43.2 0-78.83-30.661-78.83-75.082 0-23.75 8.76-43.161 26.9-58.168 10-8.762 12.51-9.391 24.41-14.993 7.49-3.769 15.63-7.507 23.74-10.648 9.37-3.75 18.79-7.492 28.14-11.891 9.38-4.359 20.03-8.109 28.79-13.121 13.75-7.5 29.38-15.008 39.41-26.898 15.64-19.379 25.64-40.653 25.64-66.281 0-89.45-69.45-141.372-154.49-141.372-30.65 0-80.72 11.903-101.95 35.032 6.25 18.129 9.38 36.89 11.89 55.66z"/><path d="m2108.7 115.781c-4.36.821-9.31 1.367-13.95 1.367-4.63 0-9.57-.546-14.21-1.367-15.6 60.188-34.21 119.617-52.54 179.27l-1.94 7.929c7.4-.558 14.78-1.378 22.18-1.378 7.37 0 15.05.82 22.44 1.378 10.94-45.98 23.52-91.41 36.12-136.839 15.59 45.711 33.37 90.589 47.32 136.839 4.66-.832 9.33-1.378 13.96-1.378 4.38 0 9.03.546 13.41 1.378 12.33-46.25 30.13-90.839 43.52-136.839 14.51 45.168 29 90.589 40.5 136.839 4.09-.558 8.19-1.378 12.31-1.378 4.08 0 8.48.546 12.3 1.378v-2.21c-22.44-61.02-43.76-122.59-62.65-184.989-4.38.821-9.3 1.367-13.95 1.367s-9.59-.546-14.24-1.367c-12.03 45.16-27.63 89.239-43.5 133.02-15.33-43.512-31.47-86.5-46.25-130.281z"/><path d="m2385.91 117.98 20.24 46.79c20.25 45.98 39.65 92.5 56.9 139.832 3.57-.563 6.84-1.352 10.41-1.352 3.54 0 6.84.789 10.38 1.352l1.92-4.661c22.71-59.91 46.52-119.562 71.71-178.66l1.37-3.031v-2.48c-7.69.57-15.63 1.378-23.26 1.378-7.66 0-15.32-.546-22.99-1.378-5.76 18.921-11.51 37.5-18.89 55.839-10.14.282-19.97.832-30.1.832-11.24 0-22.16-.261-33.37-.55l-1.37-3.852c-6.01-17.199-12.85-34.18-17.24-52.269-4.1.832-8.5 1.378-12.86 1.378-4.12 0-8.76-.546-12.85-1.378zm51.44 70.329h50.06c-7.66 21.339-15.87 42.671-24.36 63.742-8.76-20.242-17.25-40.481-24.88-61.27z"/><path d="m2672.65 302.98c7.39-.55 14.77-1.378 22.16-1.378s15.05.828 22.44 1.378c-.55-16.421-1.92-32.582-2.16-49.011-.28-10.668-.28-21.328-.28-32.008v-51.731c0-11.46.52-22.98.52-34.46l14.77.55c16.15.282 32.02 1.621 47.9 2.989-.83-3.797-1.1-7.93-1.1-11.75 0-3.84.27-7.918 1.1-11.778l-46.22 1.66c-12.61.25-24.91-.839-37.24-.839-7.66 0-15.05-.262-22.71-.821 1.92 29.578 2.47 59.141 2.47 88.688 0 10.929.27 21.89.27 32.801 0 20.289-1.09 40.25-1.64 60.48z"/><path d="m2896.74 302.98c14.5-.289 29-1.66 43.53-1.66 20.52 0 41.3 1.11 61.82 1.371-1.38-6.589-1.38-13.421-.55-20.261.28-1.071.28-2.168.55-3.258-20.79 1.598-41.58 3.808-62.4 3.258-.24-9.551-.52-18.871-.52-28.461 0-10.117-.26-20.231-.26-30.367l62.09 2.207c-.56-4.418-1.34-8.5-1.34-12.887 0-3.563.78-6.84 1.34-10.371-16.13 1.09-32.28 1.918-48.7 2.179-4.36 0-9.04.29-13.39.29 0-11.52-.29-23.258-.29-34.79 0-11.46.29-22.98.29-34.46 21.05 0 42.11 1.378 63.18 3.539-1.38-6.559-1.38-13.387-.55-20.219.28-1.11.28-2.211.55-3.309-16.39.27-33.09 1.66-49.52 1.66-10.68 0-21.61-.839-32.29-.839-8.22 0-16.15-.262-24.36-.821.55 5.219.55 10.41.82 15.598.55 16.98 1.1 33.941 1.37 51.191 0 13.692.28 27.621.28 41.578v32.032c0 14.218-1.1 28.992-1.65 43.211z"/><path d="m3207.05 266c-5.45 14.262-15.86 23.27-31.47 23.27-9.03 0-15.05-1.079-21.88-7.411-5.46-4.898-8.22-11.461-8.22-18.839 0-29.008 64.56-35.301 78.55-67.329 3.26-7.101 4.64-16.691 4.64-24.339 0-8.223-3-18.602-6.57-25.711-6.29-13.161-16.15-20.539-29-26.551-12.3-5.738-23.54-7.129-36.93-7.129-15.05 0-31.21 3.578-44.06 11.48 3.27 11.52 6.29 22.75 7.94 34.5h5.19c4.09-18.632 18.87-29.269 37.76-29.269 16.95 0 32.02 9.019 32.02 27.629 0 9.301-3.57 14.758-10.12 21.051-9.59 6.839-19.97 12.339-30.66 17.257-7.65 3.563-14.77 9.032-21.88 13.403-13.41 8.207-18.87 26-18.87 41.047 0 18.871 6.29 31.453 20.78 43.23 13.41 10.691 25.43 13.391 42.41 13.391 14.51 0 28.18-2.989 40.78-10.918.83-.832 1.66-1.09 2.45-1.91-3.27-8.782-6.02-17.801-8.76-26.852z"/><path d="m2198.21 941.078-6.03-23.262c-16.42-8.449-35.84-11.75-54.19-11.75-13.67 0-22.42 1.368-35.83 4.094-7.67 1.649-23.25 9.031-30.1 13.426-7.12 4.914-14.5 12.578-19.69 19.414-12.04 16.152-17.25 33.918-17.25 54.191 0 31.199 7.66 56.619 31.47 77.719 21.07 18.32 50.07 25.15 77.45 25.15 18.04 0 39.93-4.64 55.8-13.12-2.46-9.31-4.09-18.62-6.29-27.9h-3.83c-10.12 14.5-27.64 24.05-45.4 24.05-45.44 0-64.05-42.4-64.05-82.09 0-19.414 4.11-39.648 16.15-55.52 11.49-15.046 30.37-23.261 49.25-23.261 16.96 0 36.68 8.761 48.98 20.226z"/><path d="m2304.92 1095.42c8.21 0 16.42.55 24.36 1.65 3.81-7.94 7.66-16.15 11.48-24.09 4.12-8.76 8.21-17.25 12.33-25.73 3.82-7.94 7.94-15.88 11.75-23.81 1.38-2.99 3.03-6.83 5.47-9 0-.82 4.12 5.18 4.4 5.47 1.61 2.7 3.26 5.73 4.63 8.47 5.74 10.67 10.96 21.62 16.15 32.28 3.58 7.41 6.84 15.05 10.14 22.42 1.89 4.69 3.81 9.04 6.01 13.71 1.1-.26 2.17-.26 3.27-.55 7.42-1.36 15.08-.82 22.43.55-19.14-35.87-39.65-68.95-56.9-103.993-.27-10.383-.55-21.074-.55-31.445 0-17.247 1.65-34.493 2.76-51.75-7.67.546-15.61 1.378-23.27 1.378-7.94 0-15.6-.546-23.26-1.378 1.92 20.82 3.02 41.613 3.02 62.402.24 5.187.24 10.137.24 15.324-20.51 35.282-38.55 72.252-59.1 109.462 8.22-.55 16.43-1.37 24.64-1.37"/><path d="m2543.21 1096.8c3.57-.27 7.39-1.38 10.96-1.38 3.81 0 7.66.82 11.2 1.38 20-43.81 41.61-86.48 63.22-129.433l16.12 31.473c16.7 32.26 32.57 64.84 47.62 97.96 1.1-.27 1.93-.27 3.03-.56 6.83-1.09 13.67-.82 20.23.56 4.68-42.71 9.87-85.38 15.05-128.066 1.93-15.871 4.4-31.75 6.57-47.617.55-3.301 1.92-7.656 1.92-11.504-7.39.547-15.05 1.367-22.44 1.367-7.38 0-14.77-.82-22.16-1.367-1.92 42.157-7.39 84.004-11.48 126.157-20.82-41.879-41.33-83.735-60.74-126.157-3.58.547-6.84.809-10.42 0l-21.06 43.809c-12.57 26.512-26.01 52.798-38.86 79.328-1.92-16.16-4.09-32.3-5.74-48.41-.82-10.41-1.92-20.547-2.75-30.918-.55-9.043-1.37-17.805-1.92-26.848-.27-5.742-.55-11.199-1.1-16.961-4.09.809-8.45 1.367-12.85 1.367-4.09 0-8.49-.558-12.58-1.367 0 2.742 1.38 8.203 1.93 10.125 2.99 13.684 4.91 27.629 7.39 41.614 2.99 17.761 5.18 35.566 7.66 53.358z"/><path d="m2885.78 980.492c-2.47 4.637-5.19 9.59-7.94 13.946-.82 1.101-.55 1.375-1.92 1.648 0 0-1.38 0-1.38-1.648 0-16.145.55-32.571.55-48.692.28-2.461.28-4.941.28-7.383.27-9.582 1.37-19.172 1.92-28.75-7.38.547-14.77 1.367-22.16 1.367s-14.77-.82-22.16-1.367l.27 5.215c.28 6.016.55 12.02 1.1 18.047 1.38 17.793 1.38 35.867 1.38 53.906 0 16.419-.28 33.109-.28 49.539 0 20.23-.82 40.21-1.92 60.48l18.86-.55c13.13-.28 26.29.82 39.41.82 12.85 0 32.85.52 44.05-5.77 15.88-9 24.09-21.34 24.09-39.93 0-26.83-17.25-43.77-42.68-49.27 15.05-26.248 31.99-51.432 48.42-76.901l9.86-15.586c-8.21.547-16.7 1.367-24.91 1.367s-16.43-.546-24.6-1.367l-31.75 56.102zm-10.41 68.408c0-7.11-.28-14.22-.28-21.34 0-6.56 0-13.12-.27-19.72 28.48-2.71 42.71 10.96 42.71 39.14 0 5.73-.28 7.93-1.38 13.67-4.91 22.71-22.16 19.73-40.78 20.82z"/><path d="m3232.95 1056.84c-.26-8.76-.79-17.8-.79-26.85 0-10.1-.54-20.22-.82-30.056-.55-31.2-.27-59.676-28.73-79.364-14.8-10.695-33.66-14.504-51.75-14.504-33.07 0-68.91 10.411-79.05 45.969-1.38 4.922-1.92 9.832-2.47 14.785-.83 6.004-.56 12.567-.56 18.856-.27 11.242-.54 22.444-.54 33.944 0 11.2-.29 22.72-.29 34.2 0 10.41-.26 21.09-.26 31.47 0 3.84-.53 7.65-.53 11.51 7.68-.56 15.02-1.38 22.69-1.38 7.42 0 14.8.56 22.16 1.65-.25-4.39-.8-9.03-1.34-13.43-1.37-21.62-2.21-42.67-2.21-64.02 0-15.05-.55-37.487 1.93-51.706 2.45-13.398 4.64-21.887 14.51-31.476 8.76-8.211 19.14-11.778 31.2-11.778 25.42 0 39.1 9.309 48.68 33.117 4.95 12.059 4.95 43.233 4.95 56.663 0 27.35-.27 54.98-2.21 82.36 4.64-.82 9.33-1.38 13.96-1.38 4.64 0 9.31.56 13.68 1.38-1.35-13.16-1.65-26.56-2.21-39.96"/><path d="m2660 1396.06 1.89-135.74 2.51-67.55 1.27-13.74c-9.42.6-19.41 3.08-28.79 3.08-11.24 0-21.89-2.48-33.16-3.08.65 4.35.65 9.37 1.27 13.74l2.51 49.4 2.51 146.4v152.59l-3.16 66.3c10.65-.64 21.26-2.51 31.92-2.51 9.38 0 19.38 1.25 28.76 1.87-.62-5.61-.62-11.24-1.24-16.87l-2.51-56.9-3.13-108.86z"/><path d="m2484.49 1209.26c7.52-25.39-128.92-34.63-179.15-34.63-163.51 0-292.74 83.8-292.74 225.17 0 132.59 129.23 225.15 292.74 225.15 58.24 0 118.85-10.64 170.7-30.64l-26.32-42.53c-35.91 16.25-88.55 28.13-144.38 28.13-128.43 0-219.37-80.05-219.37-180.11 0-100.11 90.94-180.16 219.37-180.16 38.27 0 80.57 7.52 110.88 18.14l8.55 7.32v128.86l-3.16 66.32c10.65-.65 31.34-2.51 41.99-2.51 9.38 0 19.38 1.24 28.76 1.86-.62-5.6-.62-11.24-1.24-16.87l-2.51-56.95z"/><path d="m3219.94 1209.26c7.52-25.39-128.93-34.63-179.16-34.63-163.52 0-292.75 83.8-292.75 225.17 0 132.59 129.23 225.15 292.75 225.15 58.2 0 118.81-10.64 170.7-30.64l-26.36-42.53c-35.87 16.25-88.5 28.13-144.34 28.13-128.44 0-219.39-80.05-219.39-180.11 0-100.11 90.95-180.16 219.39-180.16 38.28 0 80.54 7.52 110.88 18.14l8.52 7.32v128.86l-3.13 66.32c10.65-.65 31.34-2.51 42-2.51 9.37 0 19.37 1.24 28.76 1.86-.63-5.6-.63-11.24-1.27-16.87l-2.51-56.95z"/></g></svg>